<?xml version="1.0" standalone="no"?>
<!DOCTYPE svg PUBLIC "-//W3C//DTD SVG 20010904//EN"
 "http://www.w3.org/TR/2001/REC-SVG-20010904/DTD/svg10.dtd">
<svg version="1.0" xmlns="http://www.w3.org/2000/svg"
 width="1100.000000pt" height="1100.000000pt" viewBox="0 0 1100.000000 1100.000000"
 preserveAspectRatio="xMidYMid meet">
<metadata>
Created by potrace 1.14, written by Peter Selinger 2001-2017
</metadata>
<g transform="translate(0.000000,1100.000000) scale(0.100000,-0.100000)"
fill="#000000" stroke="none">
<path d="M430 10996 c0 -3 33 -30 73 -60 39 -30 86 -67 103 -83 18 -15 59 -50
92 -78 34 -27 61 -53 61 -57 1 -4 -12 -14 -28 -22 -37 -20 -49 -61 -24 -88 15
-17 28 -19 82 -16 65 3 65 3 85 -32 20 -34 21 -51 24 -445 1 -225 6 -503 10
-616 4 -113 6 -213 4 -223 -6 -27 -22 -18 -39 22 -187 449 -406 745 -656 882
-45 25 -98 55 -117 68 -40 25 -40 25 -59 13 -33 -21 29 -288 155 -666 35 -104
77 -226 93 -270 16 -44 42 -120 56 -170 14 -49 32 -103 40 -120 7 -16 25 -70
40 -120 14 -49 32 -108 40 -130 8 -22 19 -60 24 -85 6 -25 24 -108 41 -185 16
-77 44 -217 60 -312 16 -94 37 -187 46 -206 16 -33 16 -38 -5 -106 -12 -40
-19 -75 -17 -80 3 -4 1 -35 -5 -67 -6 -32 -14 -120 -18 -194 -7 -129 -55 -451
-86 -572 -8 -32 -15 -68 -15 -80 0 -12 -11 -70 -25 -128 -50 -206 -66 -277
-94 -425 -17 -82 -35 -190 -42 -240 -12 -95 -24 -135 -41 -146 -11 -7 -57 9
-116 39 -36 19 -60 11 -77 -26 -5 -12 -19 -22 -30 -22 -11 0 -30 -3 -42 -6
-23 -6 -23 -8 -23 -200 l0 -194 24 -11 c17 -8 29 -8 45 0 25 14 26 21 6 68
-13 31 -13 39 -2 57 12 18 11 22 -12 42 -22 19 -26 32 -29 93 -4 67 -3 71 17
71 12 0 33 8 48 17 25 17 26 17 53 -15 21 -25 34 -32 62 -32 55 0 64 -19 45
-88 -9 -31 -20 -75 -25 -97 -7 -36 -11 -40 -36 -37 -37 4 -56 -14 -56 -52 0
-39 15 -56 51 -56 16 0 41 -11 56 -25 l28 -24 -55 -2 c-70 -3 -66 -3 -130 14
-37 10 -60 12 -72 6 -17 -9 -18 -138 -18 -2744 l0 -2735 1735 0 1734 0 -5 53
c-3 28 -7 61 -10 72 -7 29 -21 203 -39 485 -20 334 -19 604 4 841 10 107 18
205 19 219 0 58 24 166 44 201 18 33 20 44 11 73 -9 28 -8 38 3 47 8 6 14 8
14 3 0 -4 14 5 30 21 17 16 28 35 26 42 -3 7 0 26 5 43 8 23 8 34 -1 45 -14
17 -7 45 11 45 7 0 9 -10 7 -25 -3 -14 -2 -28 3 -31 4 -2 6 -11 3 -19 -3 -8 2
-28 12 -44 l18 -30 17 26 c18 27 12 57 -17 93 -7 8 -16 28 -20 43 -8 34 -29
45 -55 29 -25 -16 -32 -1 -33 64 -1 29 -4 55 -8 59 -4 4 -25 7 -48 7 -43 -1
-57 21 -20 31 11 3 20 12 20 21 0 19 -13 20 -40 4 -25 -16 -37 -3 -18 19 18
21 31 83 22 107 -8 21 -23 20 -54 -4 -45 -36 -83 -19 -40 17 27 24 25 42 -7
54 -36 14 -53 -4 -28 -31 16 -17 16 -20 2 -26 -22 -8 -39 4 -35 24 2 10 -3 22
-12 29 -13 11 -13 13 5 14 11 1 23 1 28 0 4 0 7 3 7 9 0 6 3 9 8 9 4 -1 9 0
12 1 3 1 21 3 40 5 37 4 55 -11 38 -32 -8 -10 -6 -13 5 -13 20 0 30 29 16 46
-15 18 3 41 34 46 14 2 23 11 25 26 3 18 -1 22 -22 22 -14 0 -36 10 -48 22
l-22 22 22 9 c39 18 20 57 -28 57 -39 0 -52 14 -49 51 4 37 -11 41 -42 13 -8
-8 -29 -14 -46 -14 -25 0 -38 9 -66 47 -35 47 -35 47 -16 72 24 30 24 41 -1
41 -30 0 -53 53 -46 104 6 37 3 45 -19 64 l-25 22 6 -25 c8 -31 -15 -34 -40
-6 -23 26 -19 87 7 83 20 -3 21 5 2 38 -8 14 -14 37 -15 53 0 20 -5 27 -20 27
-13 0 -22 9 -26 28 -3 15 -9 36 -14 47 -25 63 -31 86 -25 104 4 14 -1 24 -18
36 -15 9 -23 23 -21 33 2 9 -9 33 -25 52 -24 28 -31 32 -44 22 -20 -17 -11
-47 26 -78 22 -19 27 -28 18 -37 -8 -8 -14 -6 -25 8 -13 18 -15 18 -30 2 -23
-22 -42 -21 -66 3 -12 12 -28 19 -37 18 -23 -4 -41 35 -47 102 -3 29 -10 58
-16 64 -15 15 -12 36 6 36 12 0 14 6 8 33 -4 17 -7 56 -5 86 1 34 -4 62 -14
77 -8 13 -16 45 -16 71 0 27 0 62 -1 78 0 17 2 61 4 98 2 49 -1 70 -11 76 -11
7 -10 13 5 36 14 21 17 44 15 109 -1 44 3 113 10 151 6 39 12 102 14 142 2 40
9 89 15 109 10 30 10 39 -2 51 -13 13 -20 13 -52 -1 -20 -8 -36 -20 -36 -25 0
-6 -4 -11 -9 -11 -8 0 -12 25 -28 148 -3 23 -2 54 1 68 6 21 9 24 21 14 13
-10 15 -8 15 12 0 13 -5 29 -11 35 -12 12 -8 75 10 185 10 60 5 98 -11 98 -6
0 -37 27 -69 61 l-58 61 -30 -18 c-29 -17 -30 -17 -50 7 -11 13 -20 32 -21 42
0 14 -5 16 -25 11 -15 -4 -25 -2 -25 4 0 19 17 22 81 11 91 -16 209 -74 195
-97 -8 -14 19 -33 36 -27 24 10 38 51 38 115 0 35 5 63 13 69 62 51 77 60 91
55 9 -3 16 -7 16 -8 4 -75 24 -176 40 -203 24 -40 14 -63 -26 -63 -21 0 -47
28 -42 47 4 16 -24 123 -32 123 -5 0 -8 -36 -7 -79 2 -60 -2 -83 -14 -97 -23
-27 -31 -67 -23 -124 4 -33 10 -47 19 -44 18 7 45 -24 45 -52 0 -13 7 -42 16
-64 14 -34 14 -46 4 -64 -6 -13 -10 -34 -8 -47 2 -19 -1 -24 -19 -23 -22 1
-32 -19 -15 -30 4 -2 23 -34 40 -69 18 -36 40 -68 48 -71 22 -9 17 -43 -8 -50
-39 -9 -6 -30 36 -22 40 8 60 35 53 72 -2 13 2 32 9 41 7 10 10 30 7 45 -10
51 53 641 75 698 5 14 7 31 4 38 -4 14 26 92 36 92 3 0 22 -8 42 -17 47 -23
66 -59 44 -84 -17 -19 -13 -49 7 -49 7 0 21 7 31 16 14 14 20 14 33 4 24 -20
18 -47 -15 -72 -16 -12 -30 -27 -30 -33 0 -7 14 -39 31 -73 17 -34 30 -72 29
-84 -1 -13 -1 -27 0 -33 1 -5 1 -24 0 -41 -1 -21 6 -39 20 -52 12 -11 20 -24
17 -29 -3 -4 12 -26 34 -48 21 -22 39 -45 39 -52 0 -7 5 -13 10 -13 6 0 10 -9
10 -21 0 -11 5 -29 10 -40 8 -14 7 -19 -1 -19 -6 0 -9 -9 -6 -20 3 -11 -1 -39
-8 -62 -7 -25 -9 -52 -4 -63 6 -16 8 -12 8 17 1 31 6 40 31 53 17 9 30 22 30
30 0 9 10 15 26 15 l25 0 -20 -26 c-34 -43 -28 -70 22 -95 49 -25 53 -31 67
-81 12 -41 17 -44 53 -27 19 9 31 8 53 -5 l29 -15 -32 -1 c-18 0 -33 -4 -33
-9 0 -17 44 -20 79 -4 20 9 44 17 54 17 10 1 22 7 26 15 8 12 14 12 40 1 18
-7 35 -10 38 -6 4 3 13 0 22 -8 18 -16 42 -4 54 27 8 23 82 56 123 57 23 0 36
-7 48 -25 20 -30 56 -33 63 -5 6 22 18 26 29 8 4 -7 0 -16 -10 -22 -10 -6 -36
-28 -58 -48 -22 -21 -48 -38 -58 -38 -14 0 -21 -10 -25 -34 -6 -29 -3 -38 25
-64 28 -27 30 -34 24 -68 -9 -50 -38 -82 -58 -65 -9 8 -28 10 -49 6 -21 -4
-37 -3 -41 4 -4 6 -37 11 -76 11 -38 0 -72 5 -75 10 -3 6 -44 10 -90 10 -46 0
-95 5 -109 11 -30 14 -43 6 -70 -46 -17 -32 -18 -37 -4 -51 8 -8 53 -22 99
-31 46 -8 100 -18 119 -22 19 -3 57 -2 84 4 38 7 50 7 54 -3 5 -16 52 -16 53
1 0 13 124 77 148 77 37 0 128 37 146 60 11 14 49 56 85 94 36 37 70 74 77 81
22 23 53 80 53 98 0 9 3 17 8 17 4 0 24 17 45 37 34 32 38 40 32 69 -4 26 -1
38 15 54 21 21 28 60 10 60 -13 0 -13 57 0 65 5 3 10 15 10 25 0 10 10 31 23
45 22 26 24 26 72 14 53 -13 99 -32 127 -51 13 -10 25 -10 51 0 54 19 89 14
124 -18 43 -38 51 -73 24 -96 -11 -10 -18 -21 -15 -26 8 -13 -18 -111 -33
-124 -9 -8 -10 -20 -4 -42 9 -28 7 -31 -17 -34 -21 -3 -28 -11 -41 -55 -9 -31
-22 -53 -32 -56 -33 -9 -51 -69 -44 -144 4 -37 11 -70 15 -73 8 -5 14 -64 11
-115 -1 -20 -15 -45 -41 -73 -22 -24 -40 -47 -40 -51 0 -5 -6 -11 -14 -14 -27
-11 -38 -44 -20 -61 20 -21 25 -17 53 37 13 25 36 59 52 76 16 18 29 42 29 54
0 12 0 60 1 107 0 47 4 91 8 98 4 7 26 14 50 16 47 4 46 3 55 33 5 16 1 28
-16 45 -20 20 -42 111 -31 130 6 12 33 -3 33 -18 0 -8 4 -14 9 -14 5 0 12 -13
16 -29 3 -15 16 -39 28 -52 23 -25 57 -92 57 -115 0 -7 9 -19 20 -27 11 -7 21
-24 22 -38 3 -23 1 -24 -58 -21 -61 4 -85 -7 -61 -25 21 -17 76 -23 102 -11
41 18 75 -3 75 -47 0 -19 -4 -35 -10 -35 -5 0 -10 -16 -10 -35 0 -48 -32 -64
-90 -45 -33 11 -44 11 -65 0 -27 -14 -32 -34 -13 -46 6 -4 21 5 35 22 20 24
25 26 33 14 29 -46 28 -45 48 -27 10 9 25 17 33 17 8 0 20 13 26 30 15 41 56
42 77 1 15 -28 57 -48 77 -35 6 3 19 -2 30 -12 23 -21 32 -14 49 38 13 44 8
58 -20 51 -36 -10 -60 23 -60 82 0 46 -3 53 -25 63 -37 17 -32 52 11 90 20 18
40 32 44 32 5 0 15 9 24 21 11 16 12 28 4 50 -13 38 -6 55 27 62 27 5 65 -20
65 -43 0 -5 7 -10 16 -10 13 0 15 -7 10 -33 -10 -55 -12 -61 -24 -65 -19 -6
-14 -20 18 -49 17 -15 28 -33 26 -40 -3 -7 4 -18 16 -24 27 -14 36 0 31 49 -5
59 5 67 68 51 30 -7 65 -23 79 -35 14 -12 51 -28 82 -35 32 -6 66 -20 76 -29
24 -22 83 -33 115 -21 17 7 28 7 32 1 4 -6 -6 -10 -20 -10 -15 0 -24 -4 -20
-10 8 -12 75 -13 94 -1 19 12 41 3 34 -15 -7 -19 25 -30 47 -16 12 7 21 7 28
0 14 -14 32 -1 32 23 0 25 31 25 53 1 21 -23 23 -54 2 -46 -8 3 -20 2 -26 -2
-16 -10 25 -26 46 -18 8 4 25 -6 40 -23 18 -19 28 -24 32 -15 2 6 13 12 23 12
10 0 20 7 24 15 8 21 24 19 31 -6 5 -14 0 -28 -17 -46 l-23 -25 28 -23 c15
-13 27 -28 27 -33 0 -17 27 -21 46 -7 10 7 24 11 31 8 7 -3 15 6 19 22 8 30
-1 44 -18 27 -30 -30 -63 4 -35 36 18 21 32 92 17 92 -5 0 -10 6 -10 14 0 7
-7 27 -15 42 -17 33 -19 65 -6 80 5 5 11 18 13 28 2 15 12 19 43 20 22 1 46
-2 53 -7 14 -11 16 -73 2 -82 -5 -3 -10 -11 -10 -16 0 -6 4 -8 9 -5 5 3 11 0
14 -8 3 -8 0 -17 -8 -20 -13 -5 -13 -17 1 -134 5 -41 26 -66 64 -74 8 -2 20
-10 27 -18 9 -12 12 -8 18 23 7 34 25 53 25 25 0 -7 7 -26 15 -42 9 -17 16
-55 16 -85 1 -52 -1 -57 -35 -86 -22 -18 -36 -39 -36 -53 0 -14 -8 -26 -23
-31 -13 -5 -29 -16 -36 -25 -10 -12 -23 -15 -46 -10 -18 3 -35 2 -38 -3 -3 -4
-42 -6 -88 -3 -61 4 -86 1 -96 -8 -25 -25 -13 -32 61 -32 51 0 77 -4 85 -14 7
-8 27 -17 47 -20 27 -6 41 -2 61 13 14 12 34 21 44 21 12 0 19 7 19 18 0 20
59 82 77 82 6 0 14 13 18 30 4 16 10 30 14 30 4 0 15 13 24 30 10 16 14 30 9
30 -6 0 -9 26 -8 57 2 54 3 57 32 65 16 4 44 21 61 38 28 27 33 29 46 15 33
-33 57 -13 57 47 0 40 14 33 43 -22 29 -54 52 -62 69 -23 23 51 79 99 130 112
26 6 51 11 56 11 12 0 13 -98 1 -105 -4 -3 -18 -25 -30 -49 -32 -65 -12 -100
30 -55 l19 21 -1 -30 c-1 -19 -15 -45 -39 -71 -21 -22 -38 -47 -38 -56 0 -8
-4 -15 -10 -15 -5 0 -16 -15 -24 -34 -8 -19 -24 -39 -35 -46 -16 -8 -21 -20
-21 -51 0 -35 -4 -42 -32 -57 -17 -9 -44 -30 -59 -46 -16 -17 -34 -26 -42 -23
-10 4 -17 -3 -22 -21 -7 -28 -42 -67 -60 -67 -6 0 -24 -12 -40 -27 -16 -15
-42 -32 -57 -39 -33 -14 -34 -20 -7 -45 16 -15 20 -28 18 -71 -2 -31 2 -58 9
-65 18 -18 15 -23 -14 -25 -15 0 -40 -15 -58 -32 -26 -26 -29 -34 -19 -50 10
-16 8 -19 -16 -24 -20 -4 -32 -16 -41 -39 -8 -18 -18 -36 -23 -39 -5 -4 -4
-23 1 -45 12 -43 10 -163 -2 -183 -5 -7 -14 -10 -21 -7 -8 3 -17 -4 -20 -15
-4 -10 -15 -24 -26 -29 -10 -6 -19 -15 -19 -21 0 -7 -38 -72 -58 -99 -2 -3
-11 4 -19 15 -12 16 -14 16 -10 3 3 -10 2 -20 -2 -23 -5 -2 -5 -19 -2 -37 4
-18 4 -40 0 -48 -4 -8 -15 -34 -25 -56 -12 -28 -24 -41 -35 -39 -8 2 -30 -10
-47 -26 -17 -16 -38 -29 -46 -29 -21 0 -38 -61 -21 -75 33 -27 28 -95 -6 -95
-11 0 -46 -27 -79 -61 -48 -50 -57 -65 -50 -80 13 -24 12 -32 -2 -26 -7 2 -21
-2 -30 -11 -14 -12 -20 -12 -33 -2 -8 7 -14 18 -13 24 5 27 -15 76 -33 81 -30
10 -23 22 18 32 34 8 39 13 51 55 15 53 64 107 105 115 24 5 28 10 23 29 -9
32 44 114 73 114 17 0 81 67 81 84 0 9 5 16 10 16 6 0 10 12 10 26 0 18 6 28
23 32 22 6 22 6 -3 13 -39 11 -130 10 -130 -1 0 -5 -6 -10 -14 -10 -24 0 -120
-102 -143 -152 -13 -25 -32 -49 -43 -53 -21 -7 -50 -52 -50 -78 0 -8 -12 -23
-27 -33 -31 -19 -48 -38 -96 -100 -17 -24 -39 -46 -47 -49 -8 -3 -31 -24 -50
-46 -19 -22 -60 -67 -90 -100 -30 -32 -58 -72 -61 -87 -3 -15 -10 -26 -17 -24
-7 1 -12 -4 -12 -10 -1 -7 -8 -1 -16 15 -17 31 -26 33 -45 11 -11 -14 -10 -20
14 -40 l27 -23 -70 -52 c-41 -31 -70 -60 -70 -70 0 -31 -56 -85 -102 -98 -24
-7 -51 -17 -60 -22 -10 -5 -25 -9 -33 -9 -9 0 -18 -7 -22 -16 -5 -14 -9 -13
-24 7 -15 20 -22 22 -36 13 -17 -11 -34 -38 -49 -79 -6 -18 -7 -18 -11 -2 -3
10 1 24 7 32 26 32 -4 13 -41 -25 -22 -22 -46 -40 -55 -40 -11 0 -14 -5 -9
-17 3 -10 7 -22 8 -27 2 -11 -90 -49 -120 -48 -13 0 -23 -3 -23 -7 0 -3 -24
-6 -53 -6 -69 -1 -87 -9 -87 -40 0 -19 -5 -25 -22 -26 -13 -1 -50 -3 -83 -4
-90 -5 -132 3 -138 26 -4 15 -14 20 -39 19 -18 0 -67 0 -108 0 -59 0 -78 -4
-88 -17 -11 -16 -13 -16 -29 0 -16 16 -16 17 9 17 21 0 26 5 25 20 -1 14 -6
18 -18 15 -11 -4 -28 5 -44 21 -25 25 -25 27 -9 51 13 21 14 27 3 34 -25 15
-48 10 -65 -16 -17 -26 -12 -45 13 -45 14 0 15 -2 1 -17 -9 -10 -13 -24 -10
-32 3 -8 -1 -12 -9 -9 -8 3 -13 12 -11 21 4 21 -5 25 -71 29 -31 1 -57 5 -57
7 0 10 37 30 56 31 31 0 50 26 34 45 -17 21 -42 19 -63 -6 -24 -27 -41 -20
-47 21 -6 42 -23 48 -39 14 -10 -22 -9 -28 4 -38 15 -11 12 -46 -5 -46 -4 0
-18 -9 -30 -20 -27 -23 -55 -23 -55 0 0 9 -8 14 -20 12 -12 -1 -35 11 -55 31
-55 54 -65 68 -51 76 9 6 9 15 1 36 -7 19 -7 31 0 40 11 13 3 45 -11 45 -5 0
-9 9 -9 20 0 11 -4 20 -10 20 -5 0 -10 -9 -10 -20 0 -11 5 -20 10 -20 12 0 13
-37 1 -44 -18 -12 -40 6 -55 45 -9 21 -20 39 -25 39 -5 0 -16 3 -25 6 -22 9
-39 -36 -21 -56 8 -9 14 -51 17 -106 2 -70 7 -97 21 -111 11 -13 17 -36 17
-64 0 -24 7 -76 16 -114 9 -39 22 -97 29 -130 37 -165 111 -359 175 -462 51
-84 61 -101 80 -138 83 -167 142 -239 445 -542 241 -242 265 -263 296 -263 31
1 32 2 16 15 -10 7 -28 27 -40 43 -12 15 -47 50 -77 76 -50 44 -120 150 -120
183 0 6 -19 22 -42 35 -40 22 -43 26 -46 71 -5 75 39 105 74 51 11 -17 24 -24
36 -21 14 4 20 -4 30 -35 9 -32 21 -45 60 -67 54 -30 62 -42 47 -75 -9 -20 -7
-27 16 -50 15 -15 38 -32 52 -37 13 -5 29 -22 34 -39 6 -16 16 -31 22 -31 7
-1 17 -2 22 -3 20 -2 100 -41 110 -53 6 -6 24 -13 40 -15 22 -2 31 -9 33 -26
3 -20 8 -22 75 -22 106 0 144 9 151 33 4 16 10 19 35 14 26 -6 31 -3 31 13 0
24 68 56 84 40 5 -5 25 -10 43 -10 28 0 33 3 33 25 0 23 -3 24 -45 23 -55 -3
-87 21 -68 51 15 24 6 33 -19 20 -33 -18 -51 15 -28 51 7 12 12 12 34 0 19
-10 32 -11 49 -3 12 6 34 16 50 22 15 6 32 22 39 35 12 28 34 40 43 26 10 -17
25 -11 25 9 0 14 -5 18 -20 14 -16 -4 -23 3 -36 32 -8 20 -18 59 -21 86 -5 42
-3 49 13 55 38 12 64 28 64 39 0 6 -13 19 -30 28 -32 20 -38 38 -16 56 10 9
16 8 26 -4 18 -22 24 -19 41 19 19 41 9 66 -27 66 -17 0 -28 7 -31 20 -6 23
-9 24 -70 9 -35 -9 -47 -9 -53 0 -5 9 -9 6 -13 -9 -5 -19 -10 -21 -37 -15 -25
5 -31 4 -28 -6 3 -8 15 -14 27 -13 29 1 27 -20 -4 -34 -32 -15 -55 -15 -55 -2
0 6 -10 10 -22 10 -21 1 -21 2 -5 11 23 13 22 29 -3 29 -11 0 -20 -5 -20 -10
0 -6 -6 -9 -12 -8 -7 2 -12 -3 -10 -9 1 -7 -1 -14 -5 -14 -5 -1 -17 -3 -28 -4
-11 -2 -35 -9 -53 -17 -32 -12 -34 -12 -58 20 -28 35 -45 40 -67 17 -12 -12
-16 -12 -20 -1 -3 7 -22 17 -43 21 -44 8 -103 66 -104 103 0 18 -6 22 -34 22
-28 0 -45 10 -85 49 l-50 49 6 56 c5 52 4 58 -21 79 -32 28 -33 40 -1 57 20
11 35 11 77 1 57 -13 72 -6 73 32 0 14 5 21 15 18 8 -2 35 -5 59 -7 24 -1 47
-7 50 -13 3 -5 20 -13 36 -17 17 -4 35 -11 42 -16 6 -5 13 -5 17 0 7 12 112
10 109 -3 -1 -5 -13 -12 -25 -13 -32 -5 -48 -21 -48 -48 0 -31 10 -35 54 -22
33 10 39 10 47 -5 12 -21 43 -23 35 -2 -6 15 28 40 43 31 8 -5 82 14 91 24 3
3 36 20 73 39 60 29 74 32 115 26 26 -4 52 -11 59 -17 7 -5 18 -6 25 -1 19 11
62 11 70 -1 9 -14 0 -26 -21 -26 -14 0 -17 -6 -13 -25 7 -38 18 -39 54 -4 29
28 84 59 104 59 4 0 4 -13 1 -30 -6 -26 -4 -30 17 -30 15 0 27 9 34 26 l12 25
26 -31 c21 -24 29 -28 40 -19 21 18 17 32 -16 51 -17 9 -30 21 -30 25 0 14 60
45 76 39 8 -3 14 1 14 9 0 8 -5 15 -11 15 -17 0 -39 27 -39 47 0 26 16 47 29
39 6 -4 11 -3 11 3 0 5 -6 11 -12 14 -7 2 -4 3 7 1 14 -2 26 6 37 26 9 17 24
30 33 30 8 0 15 6 15 13 0 6 17 21 37 32 20 11 35 25 34 30 -2 9 34 21 80 29
9 1 36 19 59 39 24 20 50 37 57 37 7 0 13 3 13 8 0 4 24 18 53 32 50 24 137
77 147 91 3 3 15 9 28 13 17 6 22 15 22 41 0 26 3 33 15 29 10 -4 13 -14 9
-30 -5 -18 -2 -24 10 -24 22 0 80 30 72 37 -13 13 16 43 42 43 29 0 131 47
148 68 8 11 12 11 23 -2 11 -13 12 -22 2 -43 -10 -21 -14 -24 -21 -13 -7 11
-12 12 -21 3 -9 -9 -7 -21 9 -52 21 -40 21 -41 2 -41 -15 0 -20 -7 -20 -29 0
-19 -8 -36 -24 -48 -19 -13 -25 -29 -28 -63 -3 -45 5 -55 56 -73 5 -2 3 -20
-4 -41 -10 -31 -10 -43 1 -62 18 -35 40 -31 32 6 -4 22 -2 30 8 30 27 0 42
-17 34 -36 -8 -19 -11 -28 -13 -51 -1 -6 -20 -31 -42 -55 -22 -23 -40 -49 -40
-57 0 -8 -8 -24 -19 -35 -10 -12 -39 -52 -65 -90 -25 -38 -78 -105 -118 -149
-40 -44 -85 -98 -99 -121 -14 -22 -38 -47 -52 -55 -15 -8 -27 -17 -27 -20 0
-3 -14 -22 -30 -41 -16 -19 -30 -38 -30 -42 0 -3 -24 -22 -54 -42 -30 -20 -73
-60 -95 -88 -60 -78 -60 -78 -75 -72 -14 5 -48 -19 -96 -67 -14 -14 -36 -30
-49 -34 -13 -4 -63 -47 -113 -96 -49 -49 -92 -89 -96 -89 -4 0 -21 -16 -37
-36 -59 -72 -147 -154 -164 -154 -10 0 -24 -7 -31 -15 -11 -13 -4 -15 57 -15
62 0 72 3 94 26 13 14 39 35 59 47 85 52 544 499 720 703 114 132 264 319 294
368 10 17 36 52 57 77 42 51 142 243 189 366 48 124 92 282 101 363 4 41 13
122 19 179 6 58 15 125 21 150 6 25 7 74 3 108 -4 43 -3 68 5 77 7 8 9 25 6
38 -6 28 8 53 27 45 8 -3 22 -22 32 -44 9 -21 24 -51 32 -68 63 -119 134 -358
179 -595 36 -194 44 -581 16 -858 -5 -57 -13 -301 -16 -543 l-7 -439 1816 0
1816 0 0 1668 0 1667 -48 20 c-59 25 -157 25 -408 2 -162 -15 -189 -20 -275
-53 -150 -59 -184 -65 -257 -52 -54 10 -67 9 -98 -5 -19 -10 -59 -17 -89 -17
-32 0 -76 -9 -107 -21 -51 -21 -62 -21 -298 -14 -135 4 -315 7 -401 5 -86 -1
-171 1 -189 5 -30 7 -31 9 -26 40 5 25 3 34 -10 39 -11 4 -14 13 -10 29 4 12
8 42 10 66 3 47 -18 81 -50 81 -13 0 -15 6 -9 28 3 15 9 44 12 66 5 38 5 38
-24 32 -38 -9 -57 12 -51 55 4 22 0 33 -11 37 -24 8 -30 23 -24 54 6 29 -15
114 -44 178 -12 29 -16 100 -19 415 -2 209 -7 395 -9 412 -10 57 30 97 54 56
8 -13 13 -15 18 -6 5 6 20 14 35 18 15 4 34 15 43 25 22 24 16 56 -10 51 -11
-2 -41 -5 -67 -8 -52 -5 -57 1 -36 40 7 12 13 51 15 87 3 86 8 116 19 112 5
-2 8 -23 7 -47 -3 -39 0 -45 17 -45 20 0 28 27 30 100 3 126 7 150 28 173 23
25 29 52 12 62 -5 3 -10 15 -10 26 0 24 31 25 91 3 24 -9 71 -20 104 -24 33
-5 87 -14 120 -19 385 -68 911 -105 1275 -90 347 15 675 29 683 29 4 0 7 189
7 419 l0 419 -87 8 c-49 4 -150 4 -225 1 -109 -5 -138 -3 -138 7 0 23 118 126
175 152 44 21 55 30 55 49 0 38 -25 43 -155 30 -129 -12 -155 -10 -155 11 0
33 80 58 473 144 l57 13 0 1083 0 1083 -35 68 c-19 37 -35 73 -35 79 0 24 -78
125 -122 158 -75 57 -155 80 -277 79 l-104 -1 7 57 c7 56 43 305 71 481 8 52
26 172 41 265 14 94 43 280 65 415 21 135 46 290 55 345 8 55 24 150 35 210
27 156 31 145 -46 145 l-64 0 -6 -32 c-5 -36 -28 -180 -75 -478 -16 -107 -46
-292 -64 -410 -19 -118 -44 -278 -56 -355 -11 -77 -37 -237 -56 -355 -20 -118
-40 -244 -45 -279 -12 -78 -27 -115 -64 -158 -28 -34 -60 -43 -67 -20 -4 12 9
499 31 1192 6 187 12 402 15 477 l3 136 50 69 c43 60 103 178 103 204 0 5 -58
9 -135 9 l-135 0 0 -87 c0 -102 -7 -133 -27 -133 -13 0 -14 14 -8 93 3 50 9
100 11 110 5 15 -3 17 -65 17 -38 0 -72 -4 -75 -8 -3 -5 -10 -112 -16 -237 -8
-184 -13 -235 -28 -262 -37 -70 -284 -367 -524 -629 -102 -112 -187 -242 -295
-454 -132 -258 -166 -372 -167 -560 -1 -69 4 -150 10 -181 13 -70 4 -94 -42
-114 -50 -21 -67 -20 -59 4 3 11 0 21 -8 24 -8 3 -17 23 -20 44 -4 21 -15 54
-25 73 -11 19 -22 59 -25 87 -3 29 -14 69 -23 89 -14 28 -15 40 -6 54 10 16 8
19 -10 22 -13 2 -27 14 -34 28 -33 72 -41 85 -56 82 -46 -7 -56 57 -68 416 -6
180 -18 406 -26 502 -18 198 -69 491 -115 655 -33 118 -103 305 -127 343 l-14
22 -499 0 -499 0 -1 -37 c-1 -21 -4 -194 -8 -385 -3 -190 -9 -349 -13 -353 -3
-3 -14 -2 -25 4 -10 5 -31 13 -47 16 l-29 6 6 112 c3 62 10 166 16 232 5 66
12 184 16 263 l7 142 -64 0 -64 0 -23 -327 c-13 -181 -28 -334 -34 -340 -12
-16 -81 -17 -108 -2 -53 28 -219 60 -304 58 -159 -3 -176 -2 -187 9 -8 8 -46
9 -122 5 -110 -6 -112 -5 -174 26 -34 17 -62 35 -62 40 0 4 -25 16 -56 26 -44
14 -61 15 -80 6 -29 -13 -73 -14 -91 -3 -19 12 -40 111 -63 292 -30 233 -19
210 -95 210 -61 0 -65 -1 -65 -22 0 -21 8 -74 40 -292 13 -88 5 -99 -50 -61
-23 16 -45 36 -50 44 -9 18 -50 264 -50 304 0 27 -1 27 -70 27 -38 0 -70 -3
-70 -7 0 -5 7 -53 15 -108 19 -132 19 -155 -1 -155 -8 0 -48 15 -89 34 -101
47 -129 52 -163 30 -42 -27 -41 -26 -123 -200 -10 -22 -19 -47 -19 -55 0 -27
-67 -192 -74 -181 -5 8 -17 5 -39 -8 -59 -36 -196 -100 -228 -107 -19 -4 -34
-14 -39 -28 -11 -30 -19 -34 -73 -41 -37 -5 -50 -2 -75 16 -26 19 -34 21 -47
10 -18 -15 -20 -56 -2 -63 16 -6 -9 -32 -39 -41 -18 -6 -20 -3 -16 23 6 42
-12 46 -51 11 -19 -16 -46 -30 -60 -30 -19 0 -26 -6 -30 -26 -3 -16 0 -28 9
-31 21 -8 17 -18 -12 -32 -20 -9 -29 -9 -41 0 -11 10 -17 9 -29 -3 -15 -15
-10 -41 18 -80 7 -9 9 -21 4 -25 -4 -4 -23 11 -42 35 -20 23 -42 42 -49 42 -7
0 -15 6 -18 14 -3 7 -27 17 -53 21 -51 7 -64 -1 -64 -42 0 -27 30 -32 50 -8 7
8 23 15 36 15 19 0 24 -5 24 -25 0 -13 8 -40 17 -60 9 -19 14 -37 12 -40 -10
-9 -145 -6 -278 5 -119 11 -137 11 -168 -4 -18 -9 -40 -16 -49 -16 -9 0 -14
-7 -12 -17 2 -14 -6 -19 -37 -23 -22 -4 -56 -15 -75 -26 -19 -10 -48 -21 -65
-24 -22 -4 -31 -11 -33 -29 -2 -13 1 -28 7 -34 20 -20 11 -46 -34 -94 -24 -26
-45 -51 -45 -55 0 -3 -8 -4 -19 -1 -10 2 -44 -9 -76 -26 -32 -17 -66 -31 -76
-31 -10 0 -41 -5 -68 -11 -43 -9 -57 -19 -93 -61 -27 -32 -38 -53 -30 -56 18
-6 15 -26 -15 -89 -17 -34 -50 -78 -82 -107 -30 -28 -69 -66 -87 -83 -18 -18
-38 -33 -44 -33 -6 0 -8 -5 -5 -11 4 -6 -2 -17 -14 -25 -12 -8 -21 -26 -21
-39 0 -31 -17 -41 -25 -15 -9 27 -21 25 -57 -10 -24 -24 -27 -31 -14 -36 20
-8 39 5 32 22 -7 18 18 18 33 0 10 -12 3 -29 -35 -86 -45 -67 -47 -73 -36
-104 17 -47 15 -56 -12 -56 -18 0 -29 -10 -45 -45 -12 -25 -24 -44 -29 -44 -4
1 -15 1 -25 0 -17 -1 -16 -7 11 -50 1 -3 8 4 16 14 24 33 36 9 30 -58 -3 -33
-10 -70 -16 -80 -10 -19 -7 -31 23 -89 5 -10 9 -29 9 -43 0 -14 7 -28 15 -32
23 -8 51 -70 58 -126 6 -46 5 -49 -37 -92 -24 -25 -48 -45 -53 -45 -5 0 -16
-26 -23 -57 -7 -32 -22 -67 -32 -79 -21 -24 -23 -58 -5 -76 12 -10 11 -21 -4
-62 -17 -46 -17 -51 -3 -67 12 -14 16 -38 15 -108 -1 -51 3 -92 9 -96 13 -8
13 -48 -1 -62 -14 -14 -4 -47 27 -81 13 -15 29 -33 35 -40 6 -8 13 -47 14 -88
2 -42 6 -78 9 -81 3 -4 6 -19 6 -34 0 -23 -5 -30 -27 -35 -16 -3 -38 -10 -51
-15 -53 -21 -80 -12 -143 51 -33 33 -64 60 -69 60 -5 0 -15 7 -24 15 -8 8 -45
29 -82 46 -67 31 -70 32 -174 25 -132 -8 -169 -18 -305 -86 -91 -45 -122 -67
-177 -124 -72 -75 -127 -168 -162 -274 -23 -72 -42 -89 -51 -45 -4 15 -13 51
-21 78 -45 163 -92 403 -109 560 -9 83 -18 157 -21 166 -3 9 -9 61 -14 115 -5
55 -13 146 -19 204 -11 113 -27 397 -40 736 l-9 211 28 103 c15 56 38 115 49
131 20 26 21 34 11 65 -31 94 47 653 107 765 27 49 34 54 66 57 42 4 60 27 55
70 -3 25 -6 27 -50 27 -60 0 -70 10 -58 60 15 66 51 255 66 345 15 95 45 262
70 390 9 47 18 110 21 142 5 53 4 57 -22 74 -25 16 -30 16 -54 3 -28 -16 -35
-40 -66 -234 -9 -55 -24 -147 -35 -205 -19 -105 -38 -221 -61 -377 -11 -79
-29 -117 -44 -94 -3 6 -12 39 -20 73 -24 107 -43 181 -59 227 -21 57 -21 160
0 189 8 12 31 29 50 37 27 11 34 19 34 42 0 33 -16 53 -42 53 -10 0 -27 9 -38
20 -18 18 -20 33 -20 150 l0 130 -25 6 c-37 9 -75 -4 -83 -29 -5 -12 -5 -67
-2 -122 6 -96 0 -131 -24 -147 -27 -18 -39 -6 -101 100 -11 19 -49 60 -85 91
-36 31 -69 61 -75 67 -28 31 -63 44 -117 44 -32 0 -58 -2 -58 -4z m9470 -753
c5 -280 4 -1075 -2 -1090 -9 -27 -30 -30 -49 -7 -26 31 -107 64 -158 64 -39 0
-56 -6 -80 -26 -31 -26 -68 -91 -90 -155 -14 -42 -41 -220 -36 -230 2 -3 0
-22 -6 -42 -7 -26 -17 -38 -32 -41 -12 -3 -84 -14 -160 -26 -75 -11 -155 -27
-178 -35 -29 -11 -46 -12 -60 -5 -17 10 -19 23 -19 128 0 193 30 307 134 512
100 195 187 332 247 385 12 11 45 56 74 100 29 44 98 130 152 191 54 61 128
150 163 197 38 51 72 87 83 87 9 0 17 -3 17 -7z m-5470 -93 c0 -5 -4 -10 -10
-10 -5 0 -10 5 -10 10 0 6 5 10 10 10 6 0 10 -4 10 -10z m-150 -76 c0 -18 -24
-44 -40 -44 -26 0 -25 15 2 34 23 16 38 20 38 10z m-135 -104 c-3 -5 -11 -10
-16 -10 -6 0 -7 5 -4 10 3 6 11 10 16 10 6 0 7 -4 4 -10z m98 -30 c-15 -31
-53 -42 -53 -16 0 17 49 58 60 51 5 -3 2 -19 -7 -35z m-3189 -137 c14 -47 -19
-222 -38 -202 -4 4 -9 160 -7 202 1 10 9 17 20 17 11 0 22 -8 25 -17z m1928
-408 c0 -5 -5 -11 -11 -13 -6 -2 -11 4 -11 13 0 9 5 15 11 13 6 -2 11 -8 11
-13z m-321 -480 c-1 -15 -24 -12 -29 3 -3 9 2 13 12 10 10 -1 17 -7 17 -13z
m399 -117 c11 -12 20 -29 20 -39 0 -27 -50 -53 -102 -55 -40 -1 -48 2 -48 18
0 10 9 26 20 35 11 10 20 23 20 31 0 12 32 30 57 31 7 1 21 -9 33 -21z m1261
-129 c29 -15 13 -29 -33 -29 l-40 0 23 20 c29 23 26 23 50 9z m95 -54 c-5 -14
43 -29 81 -26 13 2 34 -9 49 -24 22 -22 36 -27 68 -26 89 4 97 2 115 -39 14
-32 20 -36 38 -29 29 11 112 4 126 -10 6 -6 19 -11 29 -11 11 0 18 -7 18 -20
0 -11 6 -20 14 -20 8 0 16 -7 20 -15 3 -9 -1 -15 -11 -15 -12 0 -13 -3 -4 -13
8 -11 6 -18 -9 -32 -12 -10 -19 -24 -16 -31 6 -15 -35 -54 -57 -54 -20 0 -37
30 -37 64 0 31 -34 36 -49 8 -13 -24 12 -62 40 -62 12 0 19 -7 19 -20 0 -13 7
-20 20 -20 13 0 20 -7 20 -19 0 -22 16 -37 22 -20 3 10 91 -41 103 -60 2 -5
-2 -21 -10 -37 -11 -24 -12 -36 -2 -66 13 -42 32 -50 40 -17 8 30 24 16 25
-21 0 -17 6 -38 12 -45 7 -8 9 -19 5 -25 -4 -7 2 -14 15 -17 22 -6 23 -19 9
-73 -3 -12 6 -15 43 -15 52 0 70 -10 38 -20 -18 -6 -20 -12 -15 -33 8 -32 3
-28 41 -35 23 -4 35 -1 49 15 17 21 18 21 32 2 10 -13 27 -19 57 -20 38 -1 45
2 60 27 10 16 25 29 35 29 9 0 23 6 30 13 10 10 15 8 26 -8 8 -11 22 -28 32
-38 15 -15 15 -23 6 -59 -14 -50 -9 -62 22 -54 17 4 29 0 42 -17 10 -13 25
-21 33 -19 12 4 13 2 3 -9 -7 -8 -8 -20 -4 -28 6 -9 12 -3 21 18 7 17 16 28
21 25 5 -3 7 -9 4 -14 -9 -15 7 -41 30 -50 15 -6 26 -21 30 -40 7 -31 23 -43
78 -54 31 -7 33 -22 13 -79 -13 -35 -12 -40 8 -60 12 -12 32 -37 45 -55 18
-25 29 -32 49 -30 20 2 28 -2 30 -16 2 -10 -2 -22 -10 -27 -9 -6 -7 -9 8 -9
26 0 38 -29 34 -83 -1 -22 4 -46 12 -55 21 -25 37 -87 27 -105 -12 -20 22 -95
40 -89 21 7 26 -11 23 -72 -4 -53 -22 -81 -22 -33 0 12 -4 28 -9 36 -7 10 -10
8 -15 -10 -22 -80 -31 -106 -43 -121 -24 -27 5 -33 33 -7 24 22 26 23 35 6 6
-9 18 -17 29 -17 31 0 50 -11 50 -30 0 -11 -4 -22 -10 -25 -5 -3 -10 -15 -10
-26 0 -23 -24 -21 -26 2 -1 8 -2 20 -3 27 -2 23 -29 12 -41 -17 -8 -20 -9 -35
-2 -48 14 -26 6 -134 -10 -144 -10 -6 -8 -13 10 -29 27 -26 28 -40 2 -33 -16
4 -20 0 -20 -20 0 -19 6 -26 23 -29 16 -2 21 -9 19 -23 -5 -24 -20 -35 -38
-28 -24 9 -12 -60 14 -82 13 -11 25 -33 26 -49 2 -16 11 -35 21 -42 23 -17 10
-34 -25 -34 -16 0 -31 -4 -34 -9 -6 -10 -55 -7 -93 4 -28 9 -30 -6 -3 -30 13
-12 24 -15 32 -8 19 13 78 7 95 -10 13 -13 12 -19 -9 -51 -25 -39 -49 -49 -41
-16 3 11 0 20 -6 20 -6 0 -11 -5 -11 -10 0 -19 -53 -33 -74 -20 -22 14 -33 5
-38 -30 -3 -21 -9 -25 -43 -28 -22 -2 -47 -9 -55 -17 -20 -18 -100 -12 -115 8
-10 14 -12 13 -23 -4 -7 -10 -19 -19 -27 -19 -8 0 -15 -6 -16 -12 0 -7 -4 -3
-9 10 -12 30 -30 28 -30 -3 0 -28 -11 -31 -40 -13 -15 10 -22 9 -39 -6 -13
-12 -36 -19 -63 -19 -24 1 -49 -4 -55 -9 -7 -6 -22 -8 -34 -5 -16 4 -30 -4
-57 -34 -32 -35 -72 -52 -72 -31 0 22 -47 3 -65 -26 -11 -17 -25 -31 -31 -32
-6 0 -17 -7 -24 -15 -11 -13 -10 -21 4 -48 11 -20 16 -47 14 -72 -3 -37 -5
-40 -37 -43 -22 -2 -35 -9 -38 -22 -9 -33 -94 -55 -143 -37 -8 3 -72 8 -141
11 -72 3 -136 11 -150 18 -38 20 -79 55 -79 67 0 6 -4 11 -10 11 -5 0 -30 21
-55 46 -40 42 -43 48 -28 59 10 7 12 14 6 18 -6 4 -13 0 -17 -8 -13 -36 -46
-9 -46 38 0 12 -7 35 -15 51 -8 15 -15 36 -15 45 0 27 -38 80 -104 144 -56 55
-62 64 -53 85 8 17 6 26 -8 42 -10 11 -24 20 -31 20 -7 0 -27 16 -45 35 -19
20 -43 35 -56 35 -12 0 -26 6 -30 13 -4 7 -19 20 -33 28 -37 24 -96 82 -103
101 -3 9 -16 18 -29 20 -13 2 -28 15 -36 30 -7 14 -26 32 -42 40 -17 7 -30 16
-30 20 0 5 -14 8 -30 8 l-30 0 5 65 c5 64 4 65 -20 65 -14 0 -32 -10 -42 -23
l-18 -24 -18 23 c-46 59 -166 71 -242 24 -31 -19 -46 -21 -113 -17 -92 5 -127
-8 -137 -53 -6 -28 -61 -129 -85 -158 -24 -27 -43 -89 -44 -142 l-1 -55 -37 3
c-20 1 -39 -2 -43 -8 -8 -12 -65 -14 -65 -1 0 5 7 22 15 37 8 16 15 36 15 45
0 27 13 31 26 8 l12 -22 6 21 c5 13 1 30 -7 43 -19 26 -5 83 27 116 48 50 54
63 60 127 7 64 7 66 -15 66 -12 0 -27 -8 -34 -17 -11 -15 -13 -15 -20 6 -3 12
-2 27 3 34 5 7 8 32 5 57 -7 68 5 127 34 160 22 27 26 42 28 108 2 46 7 76 13
75 5 -1 15 11 22 27 6 16 18 31 26 34 23 9 16 26 -11 26 -20 0 -25 5 -25 24 0
13 7 29 15 36 12 10 13 16 3 27 -9 11 -9 16 1 22 9 6 9 15 1 36 -6 17 -7 32
-2 37 5 5 6 24 2 42 -8 36 3 74 27 91 11 9 13 17 6 31 -15 29 -9 89 13 130 18
33 18 36 2 48 -16 12 -14 15 22 32 22 10 40 25 40 32 0 7 25 24 56 39 31 15
59 35 62 45 3 13 14 18 39 18 31 0 36 4 51 39 9 22 27 45 40 50 12 6 22 17 22
25 0 18 36 40 51 31 5 -4 9 -14 8 -23 -3 -33 1 -42 19 -42 10 0 26 -9 36 -21
12 -14 24 -19 39 -15 12 3 48 6 80 6 50 0 57 2 57 20 0 16 -7 20 -31 20 -17 0
-45 11 -62 24 -18 13 -41 26 -52 28 -19 5 -19 5 -1 13 11 5 26 3 39 -4 16 -10
21 -10 28 1 13 19 11 28 -5 28 -8 0 -18 4 -21 10 -9 15 56 50 93 50 35 0 48
19 59 87 8 48 -20 55 -55 16 -40 -45 -60 -30 -22 15 16 20 30 46 30 59 0 13 8
24 20 28 11 4 27 22 35 41 8 19 21 34 29 34 8 0 20 9 26 20 11 21 45 27 55 9
4 -6 13 -8 21 -5 8 3 14 -1 14 -9 0 -8 -4 -15 -8 -15 -14 0 -82 -70 -82 -83 1
-7 11 -25 24 -41 21 -25 26 -27 46 -16 12 6 31 9 42 7 18 -5 19 -4 4 12 -20
22 -20 48 -1 59 12 6 14 14 6 34 -7 20 -6 29 7 42 16 15 15 17 -6 22 -12 4
-22 13 -22 20 0 15 72 64 94 64 9 0 16 12 18 33 3 29 7 33 43 38 22 3 36 7 31
8 -21 3 19 31 46 31 36 0 68 16 68 34 0 7 13 26 30 42 16 16 30 35 30 42 0 7
15 12 40 12 33 0 40 4 40 19 0 10 7 21 15 25 8 3 15 14 15 24 0 10 3 22 6 25
10 10 26 -4 20 -18z m279 6 c-3 -5 -1 -12 5 -16 13 -8 3 -25 -15 -25 -15 0
-28 27 -19 41 3 5 12 9 20 9 8 0 13 -4 9 -9z m-997 -281 c20 0 14 -28 -8 -35
-13 -4 -20 -15 -20 -30 0 -15 -10 -31 -24 -40 -16 -11 -22 -22 -19 -35 7 -27
-66 -94 -120 -110 -23 -7 -55 -17 -70 -23 -52 -19 -100 22 -62 53 8 7 15 9 15
5 0 -5 2 -6 5 -3 3 2 0 19 -6 37 -10 28 -9 35 12 57 12 13 29 24 37 24 10 0
12 8 7 30 -4 19 -3 30 4 30 6 0 11 -7 11 -15 0 -8 7 -15 15 -15 18 0 20 -21 3
-38 -16 -16 -8 -21 23 -15 14 2 31 13 37 24 10 16 9 19 -13 25 -14 3 -25 12
-25 20 0 8 -6 14 -12 15 -7 1 5 5 27 10 23 6 41 6 43 1 1 -5 9 -17 16 -27 16
-22 39 -11 31 16 -5 13 -2 19 10 19 8 0 18 7 22 16 4 10 13 14 27 10 11 -3 27
-6 34 -6z m1377 -62 c7 -18 -9 -71 -22 -75 -13 -5 -37 62 -28 77 9 14 45 13
50 -2z m-1489 -344 c-3 -9 -6 -21 -6 -27 0 -7 -5 -4 -11 6 -11 18 -5 37 13 37
5 0 7 -7 4 -16z m5938 -89 c36 -104 123 -233 272 -405 64 -74 125 -148 135
-165 24 -39 27 -143 4 -152 -24 -8 -256 59 -282 82 -12 11 -47 79 -78 151 -31
73 -85 187 -121 254 l-66 122 26 79 c14 43 26 84 26 90 0 7 8 21 17 31 23 26
33 12 67 -87z m-4034 0 c0 -8 -4 -15 -10 -15 -5 0 -10 7 -10 15 0 8 5 15 10
15 6 0 10 -7 10 -15z m-80 -30 c0 -18 -5 -25 -19 -25 -30 0 -34 17 -9 34 29
20 28 21 28 -9z m-96 -22 c-10 -40 -14 -41 -14 -5 0 18 5 32 10 32 6 0 8 -11
4 -27z m491 -123 c3 -5 1 -10 -4 -10 -6 0 -11 5 -11 10 0 6 2 10 4 10 3 0 8
-4 11 -10z m3556 -167 c11 -27 37 -84 59 -128 41 -82 49 -115 28 -115 -6 0
-40 5 -75 11 -57 10 -66 9 -98 -10 l-35 -20 -15 29 c-22 42 -19 82 10 124 14
20 25 39 25 41 0 3 11 29 24 60 31 69 50 71 77 8z m-8591 -66 c29 -113 76
-271 116 -392 33 -97 33 -103 26 -205 -4 -58 -5 -249 -2 -425 5 -300 1 -370
-20 -349 -5 5 -18 92 -30 194 -28 253 -34 294 -58 380 -11 41 -24 98 -27 125
-4 28 -15 78 -25 112 -49 161 -64 351 -40 499 20 122 39 142 60 61z m8587
-427 c58 -90 123 -158 223 -235 53 -40 101 -79 107 -87 5 -7 38 -82 73 -166
55 -136 61 -158 55 -198 -7 -50 -28 -68 -88 -79 -23 -5 -46 -18 -62 -37 -22
-26 -25 -39 -25 -102 0 -40 -3 -75 -6 -78 -3 -4 -18 -2 -34 2 -45 13 -167 -6
-202 -31 -30 -22 -31 -22 -44 -4 -8 10 -14 23 -14 28 0 4 -12 24 -26 43 -37
48 -82 48 -120 -1 -26 -34 -64 -48 -64 -22 0 6 21 32 46 57 31 30 44 50 40 63
-4 17 18 49 40 58 12 5 54 131 54 160 0 12 -9 36 -19 53 -16 27 -18 47 -16
146 2 63 8 140 13 170 7 37 7 72 0 105 -5 28 -11 63 -12 78 -2 15 -8 33 -14
39 -19 19 -15 105 4 116 22 12 46 -8 91 -78z m-7674 -43 c82 -30 138 -64 206
-125 34 -30 52 -53 47 -60 -4 -7 -31 -24 -59 -39 -67 -33 -257 -169 -327 -233
-30 -28 -59 -49 -64 -47 -6 2 -15 44 -22 93 -6 49 -16 100 -23 113 -19 34 -4
75 69 198 53 91 79 122 102 123 4 0 36 -10 71 -23z m4500 -53 c3 -3 3 -13 0
-21 -5 -12 -7 -12 -14 -1 -15 23 -4 40 14 22z m-5534 -184 c7 -41 17 -88 22
-104 5 -16 9 -46 9 -66 0 -20 7 -59 15 -86 8 -27 15 -60 15 -75 0 -14 11 -67
24 -118 l24 -92 -20 -47 c-12 -26 -30 -59 -41 -74 -17 -23 -20 -41 -19 -105 2
-85 -5 -107 -34 -101 -15 2 -20 14 -24 53 -6 59 -22 70 -118 81 -38 4 -66 12
-69 20 -5 13 51 279 87 409 10 39 23 102 29 140 13 85 29 162 49 234 14 53 15
54 27 30 6 -13 17 -58 24 -99z m5637 97 c16 6 19 -13 4 -22 -11 -7 -60 23 -60
37 0 5 10 2 21 -6 12 -8 28 -12 35 -9z m92 -30 c-4 -29 -25 -32 -38 -6 -9 17
-9 23 1 29 19 13 40 0 37 -23z m23 -135 c4 -1 9 -37 12 -79 4 -43 9 -110 13
-150 6 -62 4 -76 -15 -106 -26 -43 -27 -73 -1 -89 21 -13 27 -47 11 -64 -5 -5
-11 -48 -13 -96 -4 -74 -8 -90 -28 -111 -18 -19 -29 -23 -41 -16 -14 7 -16 22
-13 89 2 44 -1 92 -7 107 -7 18 -6 30 1 37 15 15 12 53 -6 60 -11 4 -14 12 -9
24 4 9 8 55 10 102 l2 86 -39 16 -38 16 7 49 c7 55 18 75 62 107 26 19 60 26
92 18z m-207 -176 c-7 -19 -40 -21 -50 -4 -4 6 3 19 16 30 20 16 25 17 32 4 4
-8 5 -21 2 -30z m-20 -41 c3 -8 15 -15 26 -15 l21 0 -20 -26 c-16 -20 -18 -31
-10 -50 12 -34 12 -34 -11 -34 -46 0 -91 56 -61 74 4 3 11 19 14 36 7 32 31
41 41 15z m-3930 -50 c28 -42 21 -55 -27 -55 -54 0 -82 18 -73 48 12 38 77 43
100 7z m3866 -252 c0 -21 -3 -24 -9 -14 -5 8 -7 20 -4 28 8 21 13 15 13 -14z
m-5100 -78 c0 -55 -11 -58 -27 -8 -12 41 -10 53 13 53 10 0 14 -12 14 -45z m6
-92 c-10 -10 -19 5 -10 18 6 11 8 11 12 0 2 -7 1 -15 -2 -18z m2309 7 c44 0
62 -14 46 -34 -11 -13 -11 -16 3 -16 9 0 16 8 16 19 0 19 3 19 37 7 27 -9 48
-10 75 -3 30 8 48 5 90 -11 29 -11 74 -22 99 -25 42 -4 98 -33 124 -64 5 -7
39 -27 75 -46 46 -24 65 -39 65 -53 0 -15 -6 -18 -30 -16 -27 3 -125 33 -165
49 -8 4 -33 12 -55 18 -72 22 -189 66 -219 82 -23 13 -54 18 -128 23 -5 0 -8
7 -8 15 0 8 -8 15 -17 16 -10 0 -45 2 -79 3 -73 3 -90 11 -72 33 9 12 24 14
63 9 27 -3 64 -6 80 -6z m-1620 -94 c22 -8 55 -15 73 -16 19 0 69 -15 113 -34
43 -19 97 -37 121 -41 24 -4 60 -16 80 -26 21 -11 44 -19 52 -19 9 0 30 -6 48
-14 18 -8 42 -17 52 -21 17 -5 18 -7 5 -21 -13 -13 -26 -12 -111 4 -52 11
-101 23 -108 27 -46 29 -290 53 -290 28 0 -15 13 -18 155 -38 136 -18 257 -48
300 -75 18 -11 48 -20 68 -20 38 0 58 -16 33 -26 -9 -3 -16 -12 -16 -20 0 -18
8 -18 25 -1 15 16 75 11 75 -6 0 -6 7 -17 15 -26 8 -9 23 -25 33 -37 24 -26
42 -78 42 -119 0 -42 -35 -73 -140 -122 -105 -50 -115 -54 -165 -64 -22 -4
-92 -21 -155 -38 -121 -32 -165 -37 -175 -21 -9 15 -52 12 -58 -4 -6 -14 -38
-23 -115 -33 l-44 -5 6 73 c3 41 6 110 7 154 1 44 5 94 11 111 5 18 5 48 0 70
-9 42 2 104 21 116 6 4 13 28 16 54 8 62 -22 133 -56 134 -12 0 -25 -4 -28
-10 -3 -5 -15 -10 -26 -10 -10 0 -19 -2 -19 -4 0 -2 -3 -12 -7 -22 -5 -14 -2
-16 22 -10 19 5 31 3 36 -6 14 -22 10 -41 -7 -34 -10 4 -30 -6 -55 -29 -37
-34 -59 -44 -59 -27 0 4 -3 16 -6 28 -4 16 1 24 24 33 23 10 28 17 24 36 -5
30 -28 35 -66 16 -16 -8 -51 -13 -77 -12 -42 1 -50 -2 -72 -31 -22 -27 -28
-30 -41 -19 -21 17 -48 7 -39 -15 14 -38 -53 -45 -93 -10 l-28 23 27 18 c17
11 40 16 61 13 32 -3 33 -2 26 22 -17 59 15 81 185 126 102 27 227 27 300 0z
m1625 -90 c0 -8 -4 -18 -10 -21 -5 -3 -10 -17 -10 -29 0 -22 -2 -23 -40 -13
-22 6 -37 13 -35 16 3 2 0 10 -7 18 -19 23 5 35 85 42 9 0 17 -5 17 -13z m207
-37 c24 -10 53 -19 63 -19 9 0 23 -7 31 -16 8 -10 23 -14 38 -11 14 3 35 1 46
-3 13 -6 15 -9 5 -9 -8 -1 -22 -6 -30 -11 -13 -9 -13 -11 0 -20 20 -13 77 -13
85 0 11 17 61 11 80 -10 10 -11 31 -20 47 -20 21 0 28 -5 28 -19 0 -11 9 -21
23 -25 57 -16 -73 -29 -164 -17 -3 1 -4 12 -1 26 2 15 0 25 -7 25 -12 0 -14
-11 -12 -46 2 -16 -8 -25 -39 -38 -23 -9 -52 -13 -66 -10 -23 6 -24 8 -9 23
21 25 19 41 -7 41 -41 0 -123 30 -138 50 -20 26 -66 32 -62 7 2 -14 -2 -16
-22 -11 -19 4 -28 2 -32 -10 -7 -19 -44 -22 -45 -3 -2 29 2 113 7 129 10 33
102 31 181 -3z m-2077 -116 c-1 -11 -41 -39 -68 -47 -30 -10 -43 21 -17 40 20
15 85 19 85 7z m8645 -73 c10 -16 -5 -50 -21 -50 -15 0 -18 18 -8 44 7 18 20
21 29 6z m-9232 -91 c20 0 37 -4 37 -9 0 -6 -19 -10 -43 -10 -24 0 -47 -4 -53
-10 -11 -11 -40 -13 -306 -11 -213 1 -250 8 -186 36 27 12 76 13 273 8 132 -3
257 -5 278 -4z m5159 -31 c3 -9 29 -12 81 -11 43 0 80 -3 83 -8 3 -5 13 -9 22
-9 9 0 30 -7 46 -15 15 -8 36 -15 46 -15 24 0 33 -26 17 -51 -10 -16 -9 -25 5
-49 17 -30 17 -30 -8 -30 -13 0 -42 11 -64 25 -30 19 -53 25 -95 25 -32 0 -69
7 -87 16 -22 12 -53 15 -117 13 l-86 -3 -3 31 c-3 34 18 63 48 63 10 0 33 7
51 15 42 18 56 18 61 3z m-5672 -148 c10 -18 9 -19 -15 -8 -27 12 -33 28 -10
28 8 0 19 -9 25 -20z m3155 0 c3 -6 -4 -10 -17 -10 -18 0 -20 2 -8 10 19 12
18 12 25 0z m193 -17 c-2 -13 -15 -19 -42 -21 -62 -5 -78 8 -26 23 64 18 72
17 68 -2z m2772 -27 c0 -7 -6 -19 -14 -25 -12 -10 -17 -8 -25 8 -15 28 -14 31
14 31 15 0 25 -6 25 -14z m-2142 -34 c7 -48 -88 -109 -104 -67 -6 16 29 80 49
89 26 11 52 1 55 -22z m2122 -32 c0 -15 -7 -20 -25 -20 -20 0 -25 5 -25 23 0
13 3 27 6 30 12 11 44 -13 44 -33z m-446 -25 c-9 -14 -21 -22 -27 -18 -6 4 -1
13 12 25 31 24 35 23 15 -7z m-3734 -45 c0 -9 -40 -30 -56 -30 -13 0 -1 18 19
28 29 14 37 14 37 2z m-184 -78 c-3 -5 -19 -9 -35 -10 -16 0 -40 -6 -52 -12
-12 -7 -50 -20 -85 -30 -54 -16 -65 -16 -81 -4 -17 13 -17 15 2 30 14 11 35
14 73 11 29 -2 47 0 41 4 -8 4 3 11 27 18 75 21 126 18 110 -7z m-394 -67 c-6
-35 -21 -41 -43 -18 -26 26 -17 45 19 41 21 -2 26 -8 24 -23z m2518 -21 c0 -8
-4 -12 -10 -9 -5 3 -10 13 -10 21 0 8 5 12 10 9 6 -3 10 -13 10 -21z m1060 16
c0 -5 -2 -10 -4 -10 -3 0 -8 5 -11 10 -3 6 -1 10 4 10 6 0 11 -4 11 -10z
m1486 -37 c4 -10 6 -23 5 -29 -1 -7 8 -33 19 -59 21 -50 20 -66 -3 -47 -8 7
-17 9 -20 5 -10 -10 -8 -52 3 -73 7 -13 6 -26 -3 -42 -16 -31 -66 -78 -82 -78
-20 0 -39 -30 -41 -64 -1 -17 -7 -44 -15 -61 l-13 -30 -6 45 c-3 25 -2 50 3
57 12 17 0 32 -22 26 -15 -4 -19 3 -25 43 -12 88 -9 102 33 141 66 63 79 72
120 85 l39 12 -13 43 c-11 35 -11 43 0 43 7 0 16 -8 21 -17z m-2501 -33 c-3
-5 -11 -10 -16 -10 -6 0 -7 5 -4 10 3 6 11 10 16 10 6 0 7 -4 4 -10z m4163
-43 c2 -28 -1 -37 -12 -37 -18 0 -31 42 -22 66 10 27 31 9 34 -29z m-2473 -6
c18 -7 16 -9 -12 -15 -37 -9 -63 1 -42 15 17 10 27 10 54 0z m-4295 -51 c13
-13 20 -33 20 -58 0 -21 5 -43 11 -49 5 -5 12 -36 14 -67 5 -62 -7 -86 -43
-86 -11 0 -26 -10 -35 -22 -8 -13 -19 -19 -23 -15 -12 11 -6 260 6 292 11 30
24 31 50 5z m933 -6 c7 -8 -13 -54 -25 -54 -4 0 -8 14 -8 30 0 28 17 40 33 24z
m5777 -22 c0 -16 9 -37 19 -47 19 -16 19 -20 5 -54 -8 -20 -16 -82 -18 -141
-2 -58 -5 -106 -5 -106 -8 -12 -38 -11 -53 3 -12 10 -22 13 -28 7 -10 -10 -32
-105 -32 -134 0 -27 -20 -70 -48 -100 -15 -16 -31 -46 -34 -65 -4 -20 -16 -44
-27 -53 -10 -9 -22 -31 -25 -49 -5 -25 -11 -33 -28 -33 -21 0 -106 -72 -106
-90 0 -5 -9 -10 -19 -10 -21 0 -33 22 -25 45 7 18 -13 45 -33 45 -10 0 -12 -8
-8 -33 6 -28 3 -35 -18 -44 -19 -9 -27 -8 -40 4 -21 21 -67 10 -67 -17 0 -25
-29 -26 -72 -4 -30 15 -32 15 -45 -2 -11 -15 -19 -16 -50 -8 -34 8 -37 12 -40
49 -1 22 4 57 12 78 15 37 15 39 -5 44 -30 8 -24 29 13 43 52 19 62 27 59 44
-2 11 9 22 33 32 20 8 40 25 45 39 6 17 22 27 52 36 24 6 49 13 56 15 7 2 20
20 28 40 12 28 18 34 27 25 9 -9 8 -14 -3 -21 -8 -5 -10 -10 -4 -10 5 0 18 6
28 13 15 11 16 17 7 35 -18 33 -14 72 7 72 10 0 27 7 38 15 32 24 60 18 91
-20 l29 -35 54 35 c30 19 59 35 65 35 5 0 16 9 23 20 7 11 23 20 37 20 29 0
29 0 45 165 14 145 14 145 40 145 15 0 20 -7 20 -28z m-5790 -113 c0 -17 -6
-37 -14 -44 -12 -12 -14 -10 -18 14 -5 35 8 75 22 66 5 -3 10 -20 10 -36z
m2250 10 c0 -11 -27 -12 -34 0 -3 4 -3 11 0 14 8 8 34 -3 34 -14z m-3035 -29
c3 -5 3 -16 -2 -22 -4 -7 -6 -23 -5 -34 3 -23 -26 -42 -33 -21 -9 30 -13 75
-8 81 10 10 41 7 48 -4z m5093 -37 c-2 -30 -9 -41 -30 -51 -16 -7 -28 -21 -29
-30 0 -12 -4 -10 -12 7 -9 19 -9 25 1 29 6 2 12 15 12 29 0 26 24 52 48 53 9
0 12 -12 10 -37z m-708 -41 c0 -37 -11 -72 -21 -72 -10 0 -12 70 -3 94 9 23
24 9 24 -22z m1730 -7 c0 -8 -7 -15 -15 -15 -9 0 -12 6 -9 15 4 8 10 15 15 15
5 0 9 -7 9 -15z m-1815 -49 c18 -13 18 -15 2 -40 -10 -14 -21 -26 -25 -26 -15
1 -42 28 -42 43 0 9 8 21 18 26 22 14 25 13 47 -3z m465 -31 c-7 -8 -16 -15
-21 -15 -13 0 -11 24 3 38 18 18 35 -3 18 -23z m750 25 c0 -5 -5 -10 -11 -10
-5 0 -7 5 -4 10 3 6 8 10 11 10 2 0 4 -4 4 -10z m-4740 -51 c17 -30 12 -41
-17 -37 -28 3 -40 25 -29 53 7 18 33 9 46 -16z m4840 -14 c0 -14 -4 -25 -10
-25 -5 0 -10 11 -10 25 0 14 5 25 10 25 6 0 10 -11 10 -25z m-657 -89 c7 -19
0 -25 -24 -19 -15 4 -17 8 -8 19 15 18 25 18 32 0z m607 -22 c0 -8 -5 -12 -10
-9 -6 4 -8 11 -5 16 9 14 15 11 15 -7z m347 -10 c3 -9 1 -25 -6 -36 -7 -11 -9
-28 -6 -39 4 -12 2 -19 -7 -19 -7 0 -23 -3 -35 -6 -32 -9 -31 25 3 76 29 43
41 49 51 24z m-5145 -197 c-2 -17 3 -29 13 -33 8 -3 15 -15 15 -25 0 -11 8
-31 17 -46 11 -16 18 -49 19 -89 l2 -64 -55 -25 c-101 -46 -117 -33 -96 75 8
41 14 107 13 147 -1 76 11 96 55 90 15 -1 19 -8 17 -30z m3933 -217 c-3 -5
-13 -10 -21 -10 -8 0 -14 5 -14 10 0 6 9 10 21 10 11 0 17 -4 14 -10z m339
-291 c-3 -5 -10 -7 -15 -3 -5 3 -7 10 -3 15 3 5 10 7 15 3 5 -3 7 -10 3 -15z
m-5818 -4 c12 -31 -38 -57 -148 -80 -17 -3 -41 -23 -63 -52 -37 -48 -64 -67
-114 -78 -29 -6 -32 -4 -52 38 -26 54 -21 73 23 85 18 5 58 26 88 46 49 32 62
36 120 36 36 0 72 5 80 10 23 15 60 12 66 -5z m5890 -30 c-9 -9 -16 -23 -16
-31 0 -10 -8 -14 -22 -12 -30 4 -39 48 -10 48 11 0 25 7 32 15 9 10 17 12 23
6 6 -6 4 -15 -7 -26z m-6412 18 c4 -4 22 -6 41 -4 18 1 43 -3 55 -9 20 -11 21
-13 5 -30 -9 -10 -20 -31 -24 -46 -6 -24 -13 -29 -42 -32 -19 -1 -44 -8 -56
-14 -28 -14 -127 4 -162 30 -44 33 -48 47 -16 75 24 20 41 25 94 26 36 1 67 4
70 6 7 7 27 6 35 -2z m2339 -38 c-3 -8 -9 -15 -14 -15 -10 0 -12 24 -3 33 11
11 24 -3 17 -18z m-98 -4 c3 -5 1 -12 -4 -15 -5 -3 -11 1 -15 9 -6 16 9 21 19
6z m55 -25 c0 -16 -18 -31 -27 -22 -8 8 5 36 17 36 5 0 10 -6 10 -14z m105
-105 c5 -32 10 -38 26 -34 14 4 19 0 19 -13 0 -20 -35 -48 -49 -40 -11 7 -33
114 -26 126 11 18 23 2 30 -39z m-1405 -10 c5 -11 22 -21 36 -23 34 -4 53 -31
38 -55 -18 -29 -34 -27 -34 5 0 23 -6 32 -22 38 -26 7 -58 33 -58 46 0 16 29
8 40 -11z m-978 -50 c48 -21 83 -54 73 -70 -3 -6 -23 -11 -44 -11 -21 0 -41
-3 -44 -7 -10 -9 25 -32 49 -33 57 -1 49 -50 -13 -85 -81 -45 -164 -31 -198
35 -7 14 -21 32 -29 39 -36 30 -14 85 44 111 14 6 36 17 50 25 33 20 60 19
112 -4z m895 -80 c19 -24 20 -31 9 -40 -10 -9 -15 -8 -20 4 -11 29 -28 16 -21
-16 6 -28 5 -30 -17 -27 -17 2 -22 8 -20 25 2 12 -2 24 -8 28 -5 3 -10 17 -10
31 0 21 5 24 33 23 23 0 38 -8 54 -28z m1443 8 c0 -5 -7 -9 -15 -9 -8 0 -15 7
-15 15 0 9 6 12 15 9 8 -4 15 -10 15 -15z m3860 7 c0 -8 -10 -22 -22 -31 -30
-20 -48 -73 -37 -103 10 -25 4 -42 -12 -42 -5 0 -9 32 -9 70 0 40 4 70 10 70
6 0 10 6 10 13 0 19 21 37 42 37 10 0 18 -6 18 -14z m-5692 -24 c15 -15 42
-34 60 -41 18 -8 43 -26 56 -42 13 -15 36 -31 51 -35 33 -8 56 -51 34 -65 -22
-14 -37 -11 -58 12 -12 13 -21 17 -26 10 -8 -14 -48 -14 -80 1 -21 9 -31 9
-46 0 -27 -17 -63 -15 -75 6 -21 34 -27 97 -10 112 9 7 16 20 16 29 0 21 19
41 38 41 8 0 26 -13 40 -28z m-228 -69 c0 -10 9 -43 19 -73 11 -31 15 -59 10
-64 -12 -13 -161 -16 -176 -4 -24 19 -15 74 15 97 76 60 132 78 132 44z m2154
-44 c-8 -13 -24 -1 -24 18 0 13 3 13 15 3 8 -7 12 -16 9 -21z m93 -66 c10 -16
22 -31 28 -36 6 -5 4 -11 -7 -17 -9 -6 -15 -17 -12 -24 3 -8 1 -17 -4 -20 -15
-9 -39 3 -46 22 -3 9 -15 29 -27 44 -19 23 -20 30 -9 43 20 24 57 18 77 -12z
m237 -229 c4 -9 4 -19 1 -22 -7 -8 -35 19 -29 29 8 14 21 11 28 -7z m76 -141
c0 -13 -4 -23 -9 -23 -13 0 -21 26 -21 63 l1 32 14 -25 c8 -14 14 -35 15 -47z
m-70 -8 c0 -9 -10 -15 -24 -15 -19 0 -22 4 -18 25 3 21 7 23 23 14 11 -5 19
-16 19 -24z m170 -395 c0 -5 -4 -10 -9 -10 -6 0 -13 5 -16 10 -3 6 1 10 9 10
9 0 16 -4 16 -10z m20 -81 c0 -10 -24 -39 -33 -39 -2 0 -4 14 -5 31 0 17 -5
36 -11 43 -6 7 -8 16 -4 19 7 8 53 -39 53 -54z m2296 -103 c-3 -14 -13 -26
-21 -26 -12 0 -14 7 -9 28 9 38 15 45 26 34 6 -6 8 -22 4 -36z m-2232 -25 c7
-11 -22 -23 -35 -15 -5 3 -9 9 -9 15 0 12 37 12 44 0z m3424 -118 c-2 -10 -10
-18 -18 -18 -8 0 -16 8 -18 18 -2 12 3 17 18 17 15 0 20 -5 18 -17z m-1758
-189 c0 -11 -5 -14 -16 -10 -9 3 -18 6 -20 6 -3 0 -2 5 1 10 10 16 35 12 35
-6z m-1213 -110 c-3 -3 -12 -4 -19 -1 -8 3 -5 6 6 6 11 1 17 -2 13 -5z m2950
-26 c-3 -8 -6 -5 -6 6 -1 11 2 17 5 13 3 -3 4 -12 1 -19z m-31 -60 c7 -10 -20
-38 -38 -38 -4 0 -8 11 -8 25 0 18 5 25 19 25 11 0 23 -5 27 -12z m-3138 -60
c-6 -18 -58 -20 -58 -2 0 9 11 14 31 14 20 0 29 -4 27 -12z m60 -28 c9 -5 30
-14 45 -20 41 -14 24 -30 -34 -30 -45 0 -49 2 -49 23 0 36 10 43 38 27z m-50
-45 c7 -14 12 -38 13 -53 0 -15 3 -21 6 -14 2 6 15 12 27 12 22 0 40 -34 48
-95 2 -15 12 -21 41 -23 30 -3 38 -8 43 -29 5 -19 2 -30 -11 -40 -17 -12 -13
-18 8 -14 15 3 77 -23 77 -31 0 -8 -27 -12 -67 -8 -21 1 -22 -1 -16 -67 3 -37
5 -73 6 -80 0 -7 15 -19 33 -28 32 -15 74 -59 74 -77 0 -6 9 -21 20 -35 11
-14 20 -38 20 -54 0 -40 10 -59 31 -59 22 0 50 -37 42 -57 -3 -7 -19 -21 -36
-30 -28 -14 -31 -14 -44 3 -7 10 -19 33 -25 51 -7 18 -16 33 -21 33 -5 0 -14
6 -21 13 -18 18 -86 123 -86 133 -1 5 -14 25 -30 44 -17 19 -30 42 -30 53 0
10 -9 30 -20 45 -11 15 -31 62 -45 105 -14 44 -32 85 -40 94 -8 8 -15 30 -15
48 0 19 -5 37 -11 40 -6 4 -9 23 -7 43 2 22 -2 37 -10 40 -13 4 -17 44 -5 55
14 15 40 6 51 -18z m200 -3 c2 -7 -3 -12 -12 -12 -9 0 -16 7 -16 16 0 17 22
14 28 -4z m142 -17 c17 -9 30 -20 30 -26 0 -15 -30 -23 -43 -10 -14 14 -64 15
-72 1 -8 -13 -75 -13 -75 0 0 5 16 12 35 16 20 3 35 12 35 20 0 19 53 18 90
-1z m1540 -180 c0 -16 -69 -75 -88 -75 -9 0 -11 7 -7 19 3 11 8 30 10 42 5 27
14 36 40 41 23 5 45 -8 45 -27z m35 -5 c3 -5 -1 -10 -10 -10 -9 0 -13 5 -10
10 3 6 8 10 10 10 2 0 7 -4 10 -10z m85 -45 c10 -12 10 -19 2 -27 -17 -17 -64
6 -56 27 8 19 38 19 54 0z m-1040 -395 c0 -5 -4 -10 -10 -10 -5 0 -10 5 -10
10 0 6 5 10 10 10 6 0 10 -4 10 -10z m-492 -249 c3 -8 -1 -12 -9 -9 -7 2 -15
10 -17 17 -3 8 1 12 9 9 7 -2 15 -10 17 -17z m102 -102 c0 -13 -33 -19 -46 -8
-8 6 -14 22 -14 36 l0 24 30 -23 c17 -12 30 -25 30 -29z m951 -136 c7 -10 10
-15 5 -11 -4 3 -21 2 -37 -2 -22 -7 -29 -5 -29 5 0 12 12 18 41 24 4 0 13 -7
20 -16z m-141 -129 c0 -12 -2 -12 -14 -2 -8 7 -12 16 -9 21 7 11 23 -2 23 -19z
m48 -71 c-5 -25 -28 -28 -28 -4 0 12 6 21 16 21 9 0 14 -7 12 -17z m-160 -111
c2 -7 -6 -12 -17 -12 -21 0 -27 11 -14 24 9 9 26 2 31 -12z"/>
<path d="M4615 8489 c-3 -9 -2 -26 3 -39 l9 -24 7 29 c8 30 -9 60 -19 34z"/>
<path d="M4838 8436 c-10 -7 -18 -22 -17 -32 0 -11 3 -13 6 -6 2 6 13 12 23
12 15 0 30 18 30 36 0 9 -26 3 -42 -10z"/>
<path d="M3830 7925 c-10 -12 -9 -17 3 -30 20 -19 33 -19 41 1 4 9 5 17 4 18
-2 1 -10 7 -19 14 -13 10 -19 9 -29 -3z"/>
<path d="M5491 7716 c-17 -20 -10 -50 12 -54 15 -3 17 2 12 29 -7 41 -9 43
-24 25z"/>
<path d="M3541 7667 c-14 -14 -14 -47 -1 -47 6 0 10 -9 10 -20 0 -17 7 -20 40
-20 l40 0 0 48 0 47 -39 1 c-22 1 -44 -3 -50 -9z"/>
<path d="M3293 7639 c-16 -16 -5 -39 18 -39 22 0 25 22 6 39 -10 8 -16 8 -24
0z"/>
<path d="M3230 7484 c0 -8 5 -12 10 -9 6 4 8 11 5 16 -9 14 -15 11 -15 -7z"/>
<path d="M5670 7460 c0 -5 5 -10 10 -10 6 0 10 5 10 10 0 6 -4 10 -10 10 -5 0
-10 -4 -10 -10z"/>
<path d="M3243 7408 c-16 -20 -25 -68 -13 -68 12 0 50 37 50 49 0 5 -6 14 -14
20 -10 8 -16 8 -23 -1z"/>
<path d="M3342 7411 c-21 -13 -15 -151 7 -151 4 0 15 17 24 38 14 32 15 45 6
73 -15 43 -21 50 -37 40z"/>
<path d="M3212 7178 c-8 -8 -8 -17 0 -31 10 -20 11 -20 24 -2 26 36 6 63 -24
33z"/>
<path d="M3080 7141 c-15 -29 -12 -41 10 -41 16 0 20 7 20 30 0 34 -14 39 -30
11z"/>
<path d="M5881 7144 c0 -11 3 -14 6 -6 3 7 2 16 -1 19 -3 4 -6 -2 -5 -13z"/>
<path d="M3210 6690 c0 -5 5 -10 10 -10 6 0 10 5 10 10 0 6 -4 10 -10 10 -5 0
-10 -4 -10 -10z"/>
<path d="M3044 6409 c-9 -15 12 -33 30 -26 9 4 16 13 16 22 0 17 -35 21 -46 4z"/>
<path d="M5850 5920 c0 -5 5 -10 10 -10 6 0 10 5 10 10 0 6 -4 10 -10 10 -5 0
-10 -4 -10 -10z"/>
<path d="M5717 5863 c-28 -27 26 -61 55 -35 14 11 15 18 7 29 -12 14 -51 18
-62 6z"/>
<path d="M4410 5695 c0 -8 9 -15 19 -15 26 0 35 16 15 24 -25 10 -34 7 -34 -9z"/>
<path d="M4630 5679 c-18 -11 -39 -27 -47 -35 -19 -18 -30 -18 -41 3 -6 10
-16 14 -26 10 -24 -10 -19 -36 9 -43 30 -7 33 -24 5 -31 -29 -8 -25 -41 4 -49
31 -7 46 1 46 27 0 12 7 19 18 19 10 0 35 9 56 20 25 12 49 17 67 13 23 -4 29
-2 29 11 0 9 -6 16 -12 15 -29 -3 -39 2 -56 31 l-18 29 -34 -20z"/>
<path d="M4700 5571 c13 -25 33 -28 28 -4 -2 10 -11 19 -21 21 -16 3 -17 1 -7
-17z"/>
<path d="M4833 5553 c-13 -3 -23 -10 -23 -16 0 -23 17 -38 33 -31 13 5 16 2
11 -10 -4 -11 0 -16 14 -16 12 0 23 4 26 9 3 4 19 11 36 14 39 8 38 22 -2 37
-42 15 -67 18 -95 13z"/>
<path d="M4676 5488 c-7 -33 5 -55 23 -44 15 10 14 51 -3 65 -11 9 -15 5 -20
-21z"/>
<path d="M4993 5403 c-7 -2 -13 -13 -13 -24 0 -18 1 -19 25 -3 38 25 29 44
-12 27z"/>
<path d="M576 6273 c-9 -9 -7 -33 3 -33 12 0 22 28 12 34 -5 3 -11 3 -15 -1z"/>
<path d="M570 6157 c-14 -29 -7 -48 11 -30 6 6 9 21 7 34 l-4 24 -14 -28z"/>
<path d="M556 6091 c-4 -7 -5 -15 -2 -18 9 -9 19 4 14 18 -4 11 -6 11 -12 0z"/>
<path d="M6298 6589 c-18 -10 -25 -59 -9 -59 5 0 12 -11 15 -24 4 -18 11 -23
26 -19 23 6 26 33 9 82 -12 34 -15 35 -41 20z"/>
<path d="M6354 6193 c4 -38 25 -41 24 -4 -1 18 -6 31 -14 31 -8 0 -12 -10 -10
-27z"/>
<path d="M1760 5619 c0 -27 2 -30 15 -19 8 7 15 21 15 31 0 11 -7 19 -15 19
-10 0 -15 -10 -15 -31z"/>
<path d="M2255 5570 c3 -5 8 -10 11 -10 2 0 4 5 4 10 0 6 -5 10 -11 10 -5 0
-7 -4 -4 -10z"/>
<path d="M1750 5456 c-6 -19 -15 -36 -19 -38 -10 -4 -23 -88 -14 -88 19 1 31
18 37 55 7 33 10 37 19 24 8 -11 17 -13 27 -8 8 5 27 13 43 19 43 15 35 40
-13 40 -29 0 -40 4 -40 15 0 29 -29 15 -40 -19z"/>
<path d="M1825 5335 c-53 -32 -83 -45 -102 -45 -12 0 -13 -8 -8 -41 6 -32 3
-43 -10 -53 -15 -11 -15 -14 5 -39 23 -28 42 -36 39 -14 -1 6 -1 36 0 65 1 46
4 52 22 52 11 0 29 -5 40 -10 35 -19 56 3 58 60 0 27 0 50 -2 49 -1 0 -20 -11
-42 -24z"/>
<path d="M1826 5204 c-9 -23 10 -42 26 -26 10 10 9 16 -4 28 -14 14 -16 14
-22 -2z"/>
<path d="M8081 4334 c0 -11 3 -14 6 -6 3 7 2 16 -1 19 -3 4 -6 -2 -5 -13z"/>
<path d="M8180 4305 c-16 -20 -6 -45 19 -45 20 0 37 32 26 50 -9 15 -31 12
-45 -5z"/>
<path d="M440 3296 c0 -2 7 -6 15 -10 8 -3 15 -1 15 4 0 6 -7 10 -15 10 -8 0
-15 -2 -15 -4z"/>
<path d="M3896 1164 c-8 -22 1 -31 16 -16 9 9 9 15 1 23 -7 7 -12 5 -17 -7z"/>
<path d="M4375 10490 c-3 -5 1 -10 9 -10 9 0 16 5 16 10 0 6 -4 10 -9 10 -6 0
-13 -4 -16 -10z"/>
<path d="M4110 10064 c0 -11 5 -14 16 -10 9 3 20 6 25 6 6 0 7 5 4 10 -10 16
-45 12 -45 -6z"/>
<path d="M3750 9931 c0 -16 15 -20 40 -14 22 6 23 7 4 14 -27 11 -44 11 -44 0z"/>
<path d="M3470 9840 c0 -13 5 -18 15 -14 12 5 13 10 4 20 -15 19 -19 18 -19
-6z"/>
<path d="M3275 9660 c-4 -7 -3 -16 3 -22 14 -14 45 -2 40 15 -6 16 -34 21 -43
7z"/>
<path d="M106 9325 c-3 -10 -19 -15 -43 -15 -64 0 -67 -6 -60 -117 3 -55 12
-112 18 -127 9 -20 10 -32 2 -45 -8 -13 -7 -22 3 -36 8 -10 11 -27 8 -37 -3
-11 2 -31 12 -46 13 -20 18 -44 17 -89 -2 -59 0 -64 27 -80 38 -22 40 -28 46
-152 3 -58 10 -120 15 -138 13 -40 39 -52 39 -18 0 13 -4 26 -9 30 -5 3 -10
47 -10 98 0 50 -5 135 -11 187 -5 52 -10 178 -10 280 -1 215 -4 255 -18 293
-13 31 -18 33 -26 12z m6 -383 c-7 -2 -12 -15 -12 -28 0 -15 -6 -24 -15 -24
-13 0 -12 7 6 43 14 27 24 37 27 28 3 -8 0 -17 -6 -19z m3 -142 c-5 -8 -11 -8
-17 -2 -6 6 -7 16 -3 22 5 8 11 8 17 2 6 -6 7 -16 3 -22z"/>
<path d="M2398 8519 c-10 -6 -18 -14 -18 -19 0 -14 37 -12 46 1 10 17 -9 29
-28 18z"/>
<path d="M2381 8434 c0 -11 3 -14 6 -6 3 7 2 16 -1 19 -3 4 -6 -2 -5 -13z"/>
<path d="M287 8103 c8 -149 10 -162 23 -178 10 -12 10 -19 2 -27 -18 -18 -14
-45 7 -51 13 -3 22 -20 30 -58 6 -29 16 -58 22 -65 7 -8 7 -14 -1 -19 -16 -10
-12 -45 6 -45 14 0 16 -8 11 -50 -6 -47 -5 -49 16 -47 19 2 23 -4 27 -48 6
-57 33 -107 44 -80 10 27 7 140 -5 174 -9 24 -9 35 0 44 17 17 13 54 -11 97
-20 34 -21 42 -10 61 10 15 10 24 2 34 -6 8 -14 39 -17 69 l-6 56 -33 -6 c-34
-6 -34 -6 -34 33 0 22 -7 48 -15 59 -8 10 -15 37 -15 60 0 36 -22 74 -42 74
-3 0 -3 -39 -1 -87z"/>
<path d="M2388 8013 c7 -3 16 -2 19 1 4 3 -2 6 -13 5 -11 0 -14 -3 -6 -6z"/>
<path d="M187 7643 c-15 -15 -1 -207 14 -197 9 5 5 191 -3 200 -3 2 -8 1 -11
-3z"/>
<path d="M180 7356 c0 -13 5 -47 10 -77 7 -37 7 -62 0 -80 -13 -30 3 -85 21
-73 11 6 6 141 -8 222 -6 37 -23 43 -23 8z"/>
<path d="M197 7044 c-3 -4 1 -20 9 -36 8 -16 12 -37 9 -48 -3 -10 -1 -21 4
-25 6 -3 13 6 17 21 4 16 2 29 -5 34 -8 4 -10 17 -5 33 4 20 2 27 -8 27 -8 0
-17 -3 -21 -6z"/>
<path d="M190 6865 c-9 -10 -9 -15 -1 -15 21 0 11 -52 -14 -76 -34 -31 -32
-50 6 -58 30 -6 31 -7 24 -48 -4 -24 -11 -47 -16 -52 -5 -6 -9 -27 -9 -47 0
-24 -5 -39 -16 -43 -30 -11 -43 -6 -46 19 -4 32 -22 37 -26 8 -2 -15 6 -29 27
-44 24 -17 28 -26 20 -36 -23 -27 -46 -15 -93 52 -12 16 -16 17 -30 6 -26 -22
-20 -47 11 -46 37 0 39 -18 3 -32 -24 -9 -30 -17 -30 -42 0 -34 11 -39 31 -15
9 11 27 15 62 13 44 -3 52 0 60 19 10 21 37 31 37 14 0 -5 8 -19 19 -30 11
-14 16 -31 13 -47 -2 -14 0 -25 6 -25 15 0 29 106 26 195 -4 121 -15 297 -20
323 -5 25 -26 29 -44 7z"/>
<path d="M52 6671 c-15 -9 -27 -81 -13 -81 18 0 32 29 29 59 -2 22 -7 28 -16
22z"/>
<path d="M10905 6404 c-11 -8 -20 -25 -20 -37 0 -17 -6 -22 -27 -22 -28 1 -45
-19 -27 -30 17 -11 75 15 87 38 7 12 11 32 10 45 -1 12 -2 22 -3 22 0 0 -9 -7
-20 -16z"/>
<path d="M61 6354 c-11 -14 -24 -23 -29 -20 -5 3 -14 -6 -20 -19 -9 -20 -9
-25 2 -25 8 0 16 -7 20 -15 5 -14 9 -14 41 -1 19 8 36 15 38 15 1 0 21 3 45 7
39 6 43 9 40 33 -4 36 -37 34 -57 -3 -9 -16 -20 -28 -24 -27 -4 0 -11 1 -16 1
-6 0 -6 12 0 32 12 43 12 48 -5 48 -8 0 -24 -12 -35 -26z"/>
<path d="M215 6232 c4 -20 9 -40 12 -45 10 -16 23 6 23 37 0 26 -5 35 -21 39
-19 5 -20 3 -14 -31z"/>
<path d="M36 6101 c-4 -7 -5 -15 -2 -18 9 -9 19 4 14 18 -4 11 -6 11 -12 0z"/>
<path d="M2673 5173 c3 -41 12 -63 28 -63 12 0 12 37 -1 45 -5 3 -10 15 -10
25 0 10 -4 22 -10 25 -6 4 -9 -9 -7 -32z"/>
<path d="M3222 5138 c5 -15 28 -18 29 -3 0 6 -7 12 -17 13 -10 3 -15 -1 -12
-10z"/>
<path d="M3240 5060 c0 -5 5 -10 11 -10 5 0 7 5 4 10 -3 6 -8 10 -11 10 -2 0
-4 -4 -4 -10z"/>
<path d="M4850 4986 c0 -14 5 -28 10 -31 6 -3 10 5 10 19 0 14 -4 28 -10 31
-6 3 -10 -5 -10 -19z"/>
<path d="M3245 4860 c5 -14 2 -20 -9 -20 -26 0 -18 -30 10 -40 34 -13 31 -14
49 20 19 37 19 40 -4 40 -11 0 -23 5 -26 10 -11 18 -26 10 -20 -10z"/>
<path d="M3145 4670 c4 -19 8 -36 8 -36 1 -1 12 -5 24 -8 26 -8 39 9 22 30
-10 12 -8 17 7 29 20 15 19 15 -34 18 -33 2 -33 2 -27 -33z"/>
<path d="M3241 4644 c0 -11 3 -14 6 -6 3 7 2 16 -1 19 -3 4 -6 -2 -5 -13z"/>
<path d="M3230 4590 c0 -5 7 -10 15 -10 8 0 15 5 15 10 0 6 -7 10 -15 10 -8 0
-15 -4 -15 -10z"/>
<path d="M4821 4556 c-20 -11 -21 -14 -6 -26 12 -10 21 -11 33 -4 38 25 14 52
-27 30z"/>
<path d="M5555 4549 c-8 -13 -7 -15 25 -24 25 -8 25 -8 6 14 -22 24 -23 25
-31 10z"/>
<path d="M4868 4483 c7 -3 16 -2 19 1 4 3 -2 6 -13 5 -11 0 -14 -3 -6 -6z"/>
<path d="M5630 4475 c0 -10 7 -15 18 -13 21 4 19 22 -2 26 -10 2 -16 -3 -16
-13z"/>
<path d="M4730 4450 c0 -19 3 -21 12 -12 9 9 9 15 0 24 -9 9 -12 7 -12 -12z"/>
<path d="M5555 4440 c3 -5 8 -10 11 -10 2 0 4 5 4 10 0 6 -5 10 -11 10 -5 0
-7 -4 -4 -10z"/>
<path d="M3695 4398 c-22 -5 -48 -10 -57 -11 -10 -2 -25 -10 -35 -19 -10 -9
-43 -24 -73 -33 -68 -21 -114 -75 -104 -122 4 -23 -1 -34 -31 -63 -33 -32 -37
-33 -46 -17 -17 29 -36 19 -50 -28 -8 -26 -19 -45 -28 -45 -19 0 -51 -39 -51
-62 0 -11 -7 -18 -19 -18 -10 0 -26 -11 -35 -25 -15 -23 -17 -24 -45 -7 -28
16 -30 15 -55 -8 -29 -28 -34 -45 -10 -36 26 10 54 -3 54 -25 0 -12 -7 -19
-20 -19 -23 0 -25 -12 -6 -43 7 -12 16 -43 19 -68 4 -26 13 -66 22 -90 8 -24
15 -55 15 -69 0 -15 6 -32 12 -38 7 -7 14 -35 15 -62 1 -32 9 -60 22 -78 11
-16 23 -49 27 -73 9 -60 27 -79 72 -74 21 1 45 3 55 4 9 1 17 9 17 19 0 10 7
28 16 40 15 21 15 25 -1 42 -10 11 -19 36 -21 56 -3 38 -28 74 -52 74 -22 0
-41 31 -42 67 0 39 15 51 30 23 9 -16 21 -20 61 -20 42 0 52 -3 56 -20 3 -10
14 -22 24 -25 21 -7 25 -30 8 -40 -7 -5 -3 -14 10 -26 12 -11 21 -26 21 -35 0
-17 48 -112 61 -120 5 -3 9 -16 9 -30 0 -14 10 -35 23 -47 28 -27 77 -110 77
-130 0 -8 -6 -17 -14 -20 -8 -3 -16 -21 -18 -39 -2 -23 -10 -36 -25 -43 -31
-13 -29 -21 8 -41 21 -11 35 -12 41 -6 7 7 18 6 34 -5 26 -17 34 -49 9 -40
-17 7 -20 3 -29 -38 -5 -22 -4 -26 4 -15 8 12 10 11 10 -7 0 -23 92 -113 116
-113 8 0 14 -5 14 -12 0 -7 14 -24 31 -39 34 -29 32 -49 -4 -49 -20 0 -19 -2
8 -20 17 -11 38 -17 48 -14 9 3 17 1 17 -5 0 -12 3 -12 -68 -15 -33 -2 -57 -8
-63 -17 -5 -8 -4 -15 1 -17 6 -2 10 -23 10 -46 0 -49 24 -78 57 -70 11 3 24 1
27 -5 4 -5 13 -8 21 -4 9 3 15 -1 15 -10 0 -8 -11 -18 -25 -21 -38 -10 -19
-29 20 -22 63 12 92 -23 33 -40 -23 -7 -34 -17 -36 -32 -3 -18 3 -23 39 -28
28 -5 43 -13 46 -25 8 -28 23 -12 23 24 0 26 18 75 20 57 1 -3 3 -22 5 -43 5
-50 13 -61 32 -46 10 9 13 23 8 46 -6 33 -5 33 22 27 15 -4 36 -11 45 -15 9
-5 40 -9 68 -9 l52 0 -4 -30 c-3 -21 0 -30 9 -30 8 0 12 4 8 9 -3 5 0 13 6 16
5 4 8 13 6 20 -7 17 82 8 104 -11 12 -11 43 -13 135 -10 196 8 239 15 271 46
15 14 43 33 61 41 33 14 42 29 18 29 -7 0 -25 11 -41 26 -26 24 -26 26 -10 45
13 13 32 19 64 20 34 1 40 3 22 8 l-24 7 26 17 c22 14 30 15 46 5 16 -10 23
-9 38 4 10 8 43 18 73 21 30 2 56 9 58 16 4 13 87 51 112 51 23 0 117 62 137
90 11 16 12 27 4 50 -8 24 -7 30 4 30 8 0 19 -9 25 -20 6 -11 17 -20 25 -20
18 0 18 2 4 33 -17 38 2 60 88 100 43 21 83 41 89 45 79 51 127 89 143 111 24
33 83 54 117 41 29 -11 30 -24 4 -57 -11 -14 -20 -21 -20 -14 0 18 -28 12 -40
-8 -9 -18 -7 -20 40 -19 27 0 48 4 45 8 -3 4 4 6 15 3 25 -7 26 -8 35 -60 6
-41 6 -42 -29 -57 -20 -8 -36 -21 -36 -29 0 -8 -11 -22 -24 -30 -30 -20 -56
-76 -56 -121 0 -58 15 -47 49 37 6 16 19 31 29 34 10 2 24 14 31 25 11 17 10
22 -1 30 -9 6 -5 7 11 3 18 -6 30 0 56 28 33 35 54 104 39 128 -5 9 -2 10 11
6 23 -9 45 9 45 38 0 13 11 37 25 53 18 21 25 42 25 70 0 23 6 45 15 52 18 15
20 71 3 88 -7 7 -23 12 -36 12 -21 0 -23 3 -18 23 14 44 12 52 -14 53 -46 2
-48 4 -55 35 -4 17 -5 32 -2 35 8 8 37 -8 31 -17 -13 -22 9 -26 41 -7 41 24
51 36 38 49 -6 6 -15 4 -23 -6 -7 -8 -21 -15 -31 -15 -18 0 -20 6 -23 50 -1 9
-13 16 -28 18 -25 3 -28 7 -28 41 0 31 -4 40 -21 44 -11 3 -23 15 -26 26 -4
17 -13 21 -49 21 -44 0 -52 10 -45 53 2 13 -30 20 -42 8 -15 -15 -37 -14 -37
3 0 7 9 16 20 19 11 3 23 12 26 21 7 19 -22 56 -43 56 -7 0 -13 11 -13 25 0
24 -8 28 -90 38 -8 1 -20 13 -26 25 -6 13 -20 32 -30 42 -11 10 -25 26 -32 35
-7 8 -26 15 -43 15 -23 0 -34 7 -47 30 -15 27 -21 30 -48 25 -36 -6 -106 28
-142 70 -28 32 -40 32 -44 -2 -2 -19 -8 -27 -18 -24 -8 2 -30 6 -47 9 -19 2
-33 10 -33 18 0 17 12 18 27 3 13 -13 33 -4 33 16 0 21 -19 28 -35 15 -12 -10
-16 -9 -21 5 -4 10 -1 21 7 26 11 7 10 9 -4 9 -11 0 -27 10 -36 22 l-18 22
-38 -23 c-24 -14 -47 -20 -61 -17 -17 5 -27 -1 -42 -21 -19 -27 -21 -27 -39
-10 -23 20 -36 12 -23 -14 12 -21 2 -51 -14 -46 -6 2 -11 18 -12 36 0 18 -5
35 -11 39 -5 4 -13 14 -16 22 -3 8 -3 -6 0 -31 4 -31 1 -50 -9 -60 -7 -8 -19
-25 -26 -39 -17 -35 -35 -64 -47 -73 -5 -5 8 -5 31 -2 29 4 44 2 53 -9 8 -9 9
-16 1 -21 -15 -9 -12 -41 5 -55 13 -11 21 -9 45 8 16 12 33 22 38 22 14 0 50
43 54 64 4 26 55 43 80 27 10 -6 29 -9 43 -5 23 6 25 3 25 -27 l1 -34 14 25
14 25 1 -26 c0 -14 -5 -30 -12 -37 -9 -9 -8 -12 4 -12 9 0 19 4 22 8 2 4 17 8
33 7 25 0 28 -3 25 -30 -4 -46 -10 -55 -32 -55 -12 0 -19 -4 -16 -9 3 -4 -6
-13 -20 -20 -14 -6 -32 -27 -40 -46 -8 -20 -22 -39 -32 -42 -9 -4 -21 -13 -25
-20 -19 -31 -87 -38 -87 -9 0 15 -77 62 -97 58 -8 -2 -21 6 -29 17 -13 18 -16
19 -46 4 -29 -15 -30 -17 -13 -29 24 -18 12 -44 -20 -44 -17 0 -29 -7 -35 -22
-5 -13 -9 -19 -9 -14 -1 5 -11 0 -23 -11 -17 -15 -42 -22 -101 -27 -43 -3 -91
-13 -107 -21 -33 -17 -86 -20 -95 -5 -3 5 -23 9 -43 8 -21 0 -47 4 -59 10 -12
7 -35 12 -51 12 -16 0 -41 9 -55 20 -14 11 -34 20 -45 20 -24 0 -32 17 -25 53
5 25 3 27 -31 27 -38 0 -58 20 -70 73 -5 23 -11 27 -41 27 -30 0 -37 6 -60 44
-14 24 -32 46 -39 49 -7 3 -17 22 -20 43 -7 33 -38 73 -58 74 -5 0 -8 -13 -8
-29 0 -29 0 -29 -37 -19 -32 9 -38 7 -53 -12 -10 -14 -22 -19 -33 -14 -20 7
-21 16 -7 30 6 6 8 18 4 27 -5 13 -9 14 -24 4 -15 -9 -23 -7 -40 8 l-20 18 27
18 c15 10 31 28 35 40 8 21 9 21 28 4 19 -18 20 -17 20 7 0 24 4 26 48 30 32
3 51 0 58 -9 23 -27 60 -3 43 28 -7 13 -2 30 17 66 19 36 24 56 19 82 -6 30
-8 31 -19 16 -16 -23 -39 -10 -31 16 15 46 -48 61 -150 37z m-165 -424 c0 -8
-5 -12 -10 -9 -6 4 -8 11 -5 16 9 14 15 11 15 -7z m300 -3 c0 -6 -4 -13 -10
-16 -5 -3 -10 1 -10 9 0 9 5 16 10 16 6 0 10 -4 10 -9z m-390 -216 c9 -10 24
-13 55 -8 34 4 50 1 72 -15 46 -33 96 -49 138 -44 35 3 47 -2 91 -37 27 -22
62 -43 77 -46 15 -4 39 -21 53 -38 28 -33 88 -60 115 -52 19 6 75 -20 109 -50
38 -34 132 -81 192 -96 29 -7 60 -18 68 -25 18 -15 271 -11 313 5 14 5 72 8
129 5 56 -3 124 -4 150 -4 25 1 49 -4 52 -9 5 -7 15 -6 31 1 24 11 79 4 127
-17 12 -4 25 1 43 19 14 14 30 26 35 26 6 0 31 -16 56 -35 43 -33 48 -35 68
-21 15 9 34 12 56 7 39 -8 50 -26 20 -34 -17 -4 -20 -13 -20 -54 0 -43 -3 -50
-34 -71 -29 -20 -42 -22 -83 -16 -26 3 -53 11 -59 15 -6 5 -27 9 -45 9 -100 1
-316 12 -329 16 -8 3 -35 7 -60 9 -47 3 -116 11 -185 20 -22 3 -75 7 -118 10
-43 3 -93 11 -110 19 -18 7 -58 19 -91 26 -32 6 -86 25 -120 41 -33 16 -73 29
-88 29 -15 0 -30 5 -33 10 -3 6 -12 10 -20 10 -23 0 -279 120 -295 138 -19 22
-101 44 -114 31 -17 -15 -52 -10 -71 11 -10 11 -14 20 -10 20 5 0 -1 9 -13 20
-12 12 -22 25 -22 31 0 23 -65 69 -97 69 -20 0 -33 5 -33 13 0 7 -9 20 -20 30
-23 19 -27 47 -6 47 7 0 19 -7 26 -15z m2094 -11 c11 -28 -92 -126 -126 -120
-79 16 -87 19 -92 39 -9 32 59 89 95 82 14 -3 36 -1 50 4 37 15 66 13 73 -5z
m30 -85 c-3 -5 -10 -7 -15 -3 -5 3 -7 10 -3 15 3 5 10 7 15 3 5 -3 7 -10 3
-15z m-574 -4 c0 -19 -48 -31 -63 -16 -9 9 -8 14 3 21 23 15 60 12 60 -5z
m-202 -23 c2 -7 -3 -12 -12 -12 -9 0 -16 7 -16 16 0 17 22 14 28 -4z m772 -11
c0 -11 -4 -22 -9 -25 -11 -7 -20 14 -13 32 7 19 22 14 22 -7z m-2335 -1 c-3
-5 -10 -10 -16 -10 -5 0 -9 5 -9 10 0 6 7 10 16 10 8 0 12 -4 9 -10z m2388
-50 c14 -11 30 -20 36 -20 6 0 11 -4 11 -8 0 -11 -39 -47 -43 -41 -11 14 -47
77 -47 83 0 12 17 6 43 -14z m-160 -130 c-3 -11 -9 -20 -15 -20 -5 0 -4 9 2
20 6 11 12 20 14 20 2 0 2 -9 -1 -20z m-1599 -115 c8 -8 18 -15 22 -15 4 0 22
-11 40 -25 45 -35 133 -75 150 -68 8 3 16 -5 19 -20 6 -24 29 -37 67 -37 10 0
46 -13 80 -29 107 -50 146 -59 250 -58 84 0 104 -3 147 -24 27 -13 52 -33 55
-43 5 -19 6 -19 26 -1 24 22 124 29 183 12 35 -10 36 -11 20 -29 -12 -14 -14
-21 -5 -30 16 -16 42 8 42 37 0 23 4 24 88 27 48 2 88 2 90 1 2 0 6 -24 9 -53
5 -58 -15 -95 -48 -85 -12 4 -23 -2 -34 -18 -22 -34 -44 -38 -121 -20 -64 15
-66 15 -90 -7 -22 -21 -30 -23 -118 -17 -69 4 -99 2 -113 -8 -19 -14 -18 -14
-173 17 -30 6 -65 20 -77 31 -13 11 -29 17 -41 13 -10 -4 -35 0 -55 9 -20 8
-47 15 -59 15 -27 0 -129 40 -153 60 -10 8 -37 21 -62 30 -40 13 -49 23 -78
77 -18 34 -48 82 -67 105 -42 53 -63 131 -41 154 18 18 28 18 47 -1z m1693
-57 c-3 -8 -6 -5 -6 6 -1 11 2 17 5 13 3 -3 4 -12 1 -19z m103 -20 c0 -7 3
-23 6 -35 5 -18 1 -25 -22 -33 -15 -6 -45 -8 -66 -5 -33 6 -38 10 -38 34 0 19
7 31 23 39 31 15 97 15 97 0z m334 -217 c3 -4 -3 -16 -13 -25 -17 -16 -19 -16
-25 0 -9 24 25 46 38 25z m-724 -70 c0 -5 -6 -14 -14 -20 -12 -10 -13 -8 -9 8
5 21 23 30 23 12z m-470 -242 c0 -4 -17 -11 -37 -15 -21 -4 -45 -12 -53 -19
-8 -8 -27 -16 -41 -20 -23 -6 -28 -2 -37 24 -10 29 -10 30 26 33 80 7 142 6
142 -3z m53 -59 c5 -4 -3 -27 -18 -51 l-27 -42 -19 24 c-23 30 -24 47 -2 71
16 18 46 17 66 -2z m-963 -14 c0 -3 -4 -8 -10 -11 -5 -3 -10 -1 -10 4 0 6 5
11 10 11 6 0 10 -2 10 -4z m140 -70 c0 -11 -19 -15 -25 -6 -3 5 1 10 9 10 9 0
16 -2 16 -4z m215 -61 c0 -5 -10 -11 -22 -13 -16 -2 -23 2 -23 13 0 11 7 15
23 13 12 -2 22 -7 22 -13z m99 -1 c15 -6 23 -34 10 -34 -13 0 -44 21 -44 30 0
11 11 13 34 4z m286 -58 c0 -3 -4 -8 -10 -11 -5 -3 -10 -1 -10 4 0 6 5 11 10
11 6 0 10 -2 10 -4z"/>
<path d="M4677 4386 c-3 -8 -3 -17 0 -20 7 -7 33 13 33 25 0 15 -27 10 -33 -5z"/>
<path d="M4890 4391 c0 -5 -12 -12 -27 -16 -25 -6 -52 -30 -53 -47 0 -16 56
-7 80 12 14 11 33 20 42 20 18 0 33 16 21 23 -19 11 -63 16 -63 8z"/>
<path d="M3960 4379 c-67 -19 -67 -18 -33 -49 18 -17 39 -30 47 -30 19 0 36
30 36 64 0 28 0 28 -50 15z"/>
<path d="M4065 4365 c-20 -15 -20 -15 9 -41 33 -29 70 -29 74 1 3 27 -8 42
-38 50 -16 4 -33 0 -45 -10z"/>
<path d="M4194 4305 c-4 -10 -14 -13 -31 -9 -19 5 -24 3 -21 -7 3 -8 14 -14
25 -14 11 -1 28 -7 37 -14 20 -17 46 -7 46 17 0 36 -45 58 -56 27z"/>
<path d="M6024 4285 c-10 -25 8 -49 42 -55 15 -3 28 -9 28 -15 1 -14 -44 -19
-57 -6 -8 8 -17 5 -34 -11 -18 -17 -34 -21 -68 -19 -39 2 -50 -2 -75 -28 -51
-51 -35 -111 30 -111 21 0 42 -5 45 -10 8 -13 25 -3 25 16 0 9 -11 14 -35 14
-39 0 -45 12 -17 32 10 7 22 22 26 33 7 19 8 19 20 3 18 -24 46 -23 46 2 0 23
21 35 73 45 30 6 37 12 37 30 0 13 7 25 15 29 21 8 19 44 -2 50 -61 18 -93 18
-99 1z"/>
<path d="M6266 4273 c-12 -13 -6 -53 9 -53 9 0 15 9 15 24 0 26 -12 40 -24 29z"/>
<path d="M4737 4259 c-22 -13 -13 -29 18 -29 29 0 43 19 24 31 -17 11 -20 11
-42 -2z"/>
<path d="M6930 4245 c0 -9 5 -15 11 -13 6 2 11 8 11 13 0 5 -5 11 -11 13 -6 2
-11 -4 -11 -13z"/>
<path d="M6190 4231 c0 -11 5 -23 10 -26 6 -3 10 3 10 14 0 11 -4 23 -10 26
-5 3 -10 -3 -10 -14z"/>
<path d="M3280 4231 c0 -5 -9 -13 -20 -16 -13 -4 -20 -15 -20 -32 0 -25 1 -25
19 -9 13 11 27 15 40 11 22 -7 27 7 15 39 -7 17 -34 22 -34 7z"/>
<path d="M3362 4205 c-12 -15 -22 -31 -22 -36 0 -18 19 -18 41 0 19 15 21 22
13 41 l-10 23 -22 -28z"/>
<path d="M6417 4214 c-10 -10 -9 -44 2 -44 13 0 23 32 13 42 -5 5 -11 5 -15 2z"/>
<path d="M6548 4201 c-30 -24 -43 -61 -22 -61 8 0 29 7 45 16 22 11 29 21 27
36 -4 30 -20 32 -50 9z"/>
<path d="M7151 4167 c-8 -15 -11 -30 -8 -34 12 -12 29 14 25 38 -3 22 -3 22
-17 -4z"/>
<path d="M4629 4163 c-1 -5 -1 -11 0 -15 0 -5 -6 -8 -14 -8 -8 0 -15 -4 -15
-10 0 -13 27 -13 36 1 3 6 20 17 38 25 l31 13 -37 1 c-21 0 -39 -3 -39 -7z"/>
<path d="M4110 4130 c13 -8 13 -11 1 -22 -11 -10 -14 -10 -18 0 -5 14 -39 16
-47 3 -3 -5 10 -25 30 -46 32 -35 36 -36 53 -21 10 9 25 16 34 16 24 0 21 37
-3 43 -11 3 -20 12 -20 21 0 10 -9 16 -22 16 -18 0 -20 -2 -8 -10z"/>
<path d="M3795 4120 c-3 -5 -1 -10 4 -10 6 0 11 5 11 10 0 6 -2 10 -4 10 -3 0
-8 -4 -11 -10z"/>
<path d="M6588 4101 c2 -16 -1 -32 -7 -35 -14 -9 -14 -36 -1 -36 6 0 10 6 10
14 0 7 7 19 15 26 26 21 13 60 -19 60 -1 0 -1 -13 2 -29z"/>
<path d="M4610 4061 c0 -36 17 -58 43 -53 4 1 7 -9 7 -23 0 -28 5 -30 42 -13
15 7 29 24 32 38 10 50 15 85 10 67 -5 -18 -7 -18 -20 2 -12 17 -26 21 -65 21
l-49 0 0 -39z"/>
<path d="M6437 4093 c-11 -18 11 -35 39 -31 40 4 38 32 -3 36 -17 2 -33 -1
-36 -5z"/>
<path d="M3130 4081 c0 -11 26 -22 34 -14 12 12 5 23 -14 23 -11 0 -20 -4 -20
-9z"/>
<path d="M6000 4071 c0 -13 26 -32 33 -24 14 13 6 33 -13 33 -11 0 -20 -4 -20
-9z"/>
<path d="M6360 4020 c0 -5 5 -10 10 -10 6 0 10 5 10 10 0 6 -4 10 -10 10 -5 0
-10 -4 -10 -10z"/>
<path d="M6219 4003 c-1 -5 -1 -11 -1 -14 2 -11 -48 -20 -68 -14 -11 3 -30 0
-42 -7 -13 -7 -32 -13 -43 -13 -11 0 -20 -7 -20 -15 0 -9 8 -14 21 -12 12 1
27 -4 34 -13 15 -18 91 -21 121 -4 16 8 18 13 9 24 -16 19 -4 35 25 35 18 0
22 4 18 20 -3 13 -14 20 -29 20 -13 0 -25 -3 -25 -7z"/>
<path d="M4100 3996 c0 -4 7 -14 15 -22 8 -9 15 -11 15 -6 0 5 -7 15 -15 22
-8 7 -15 9 -15 6z"/>
<path d="M6840 3870 c0 -5 5 -10 10 -10 6 0 10 5 10 10 0 6 -4 10 -10 10 -5 0
-10 -4 -10 -10z"/>
<path d="M4788 3844 c-16 -16 -7 -26 17 -20 19 5 31 0 49 -19 30 -32 48 -32
63 2 7 15 12 28 10 29 -7 7 -133 14 -139 8z"/>
<path d="M2697 3813 c-3 -5 -2 -15 2 -22 7 -10 10 -10 16 -1 4 6 3 16 -3 22
-5 5 -12 6 -15 1z"/>
<path d="M2720 3720 c0 -11 7 -20 15 -20 8 0 15 9 15 20 0 11 -7 20 -15 20 -8
0 -15 -9 -15 -20z"/>
<path d="M6635 3694 c-11 -12 -13 -20 -6 -27 7 -7 17 -3 31 13 11 13 20 25 20
27 0 10 -31 1 -45 -13z"/>
<path d="M6545 3670 c-3 -5 1 -10 9 -10 8 0 18 -9 21 -21 5 -15 10 -18 18 -10
7 7 5 16 -8 31 -20 22 -31 25 -40 10z"/>
<path d="M6517 3634 c-11 -11 -8 -44 3 -44 15 0 24 30 13 41 -5 5 -12 6 -16 3z"/>
<path d="M10989 3618 c-1 -7 0 -21 1 -31 1 -11 -8 -26 -19 -34 -17 -11 -19
-18 -11 -33 5 -10 10 -27 10 -38 0 -11 7 -33 15 -48 14 -27 15 -22 15 84 0 61
-2 112 -5 112 -3 0 -6 -6 -6 -12z"/>
<path d="M6395 3609 c-10 -15 3 -25 16 -12 7 7 7 13 1 17 -6 3 -14 1 -17 -5z"/>
<path d="M6510 3569 c0 -5 5 -7 10 -4 6 3 10 8 10 11 0 2 -4 4 -10 4 -5 0 -10
-5 -10 -11z"/>
<path d="M6510 3525 c0 -9 5 -15 11 -13 6 2 11 8 11 13 0 5 -5 11 -11 13 -6 2
-11 -4 -11 -13z"/>
<path d="M6596 3515 c-9 -24 -7 -45 3 -45 5 0 13 9 16 21 8 26 -9 48 -19 24z"/>
<path d="M6497 3473 c-3 -7 -2 -49 3 -108 2 -22 30 31 30 56 0 46 -19 76 -33
52z"/>
<path d="M6544 3347 c-30 -32 -44 -62 -44 -96 0 -24 -7 -34 -30 -46 -33 -17
-36 -26 -17 -56 10 -17 9 -22 -4 -29 -8 -5 -46 -38 -83 -74 -52 -50 -67 -70
-63 -86 4 -15 0 -20 -14 -20 -10 0 -19 -4 -19 -10 0 -13 47 -13 55 0 4 6 15 6
32 -1 30 -11 94 -2 73 11 -16 10 5 80 25 80 7 0 16 15 19 34 6 33 30 54 41 37
8 -15 43 -1 48 19 5 18 -16 58 -37 72 -12 8 18 78 34 78 6 0 8 15 4 39 -6 36
-4 40 17 43 23 3 24 4 4 15 -17 9 -24 8 -41 -10z"/>
<path d="M6402 3334 c-12 -8 -22 -20 -22 -26 0 -6 -8 -20 -17 -31 -17 -18 -17
-19 12 -15 20 2 35 13 48 36 23 40 12 59 -21 36z"/>
<path d="M3294 3095 c-3 -19 -10 -38 -15 -41 -5 -3 -9 -12 -9 -20 0 -23 63
-18 78 6 7 11 8 20 3 20 -5 0 -15 16 -21 35 -15 45 -27 45 -36 0z"/>
<path d="M3195 2959 c-4 -6 -5 -12 -2 -15 7 -7 37 7 37 17 0 13 -27 11 -35 -2z"/>
<path d="M3481 2672 c-12 -22 -3 -72 13 -72 19 0 36 22 36 45 0 21 -17 45 -32
45 -4 0 -12 -8 -17 -18z"/>
<path d="M5707 2567 c-9 -15 -13 -28 -7 -32 11 -6 33 31 28 47 -2 6 -12 -1
-21 -15z"/>
<path d="M5640 2525 c1 -26 2 -28 11 -12 8 14 8 22 0 30 -8 8 -11 3 -11 -18z"/>
<path d="M5593 2463 c9 -2 23 -2 30 0 6 3 -1 5 -18 5 -16 0 -22 -2 -12 -5z"/>
<path d="M5423 2383 c-7 -2 -13 -12 -13 -22 0 -9 -13 -21 -30 -28 -16 -6 -30
-16 -30 -22 0 -6 14 -11 30 -11 23 0 30 4 30 20 0 11 6 20 14 20 13 0 26 20
26 41 0 10 -8 10 -27 2z"/>
<path d="M4153 2188 c-24 -5 -43 -13 -43 -18 0 -4 23 -11 51 -15 53 -7 73 3
62 32 -6 15 -11 15 -70 1z"/>
<path d="M5485 2170 c-3 -5 -1 -10 4 -10 6 0 11 5 11 10 0 6 -2 10 -4 10 -3 0
-8 -4 -11 -10z"/>
<path d="M3727 2134 c-8 -8 1 -24 14 -24 5 0 9 7 9 15 0 15 -12 20 -23 9z"/>
<path d="M4195 2130 c3 -5 8 -10 11 -10 2 0 4 5 4 10 0 6 -5 10 -11 10 -5 0
-7 -4 -4 -10z"/>
<path d="M5266 2114 c-10 -37 0 -41 29 -14 26 25 25 40 -5 40 -11 0 -20 -10
-24 -26z"/>
<path d="M5180 2060 c0 -5 5 -10 11 -10 5 0 7 5 4 10 -3 6 -8 10 -11 10 -2 0
-4 -4 -4 -10z"/>
<path d="M3641 2030 c-17 -10 -7 -40 14 -40 8 0 15 9 15 19 0 24 -12 32 -29
21z"/>
<path d="M4220 1905 c0 -9 9 -15 25 -15 13 0 29 -8 34 -17 10 -16 10 -16 11 3
0 11 -5 25 -12 32 -17 17 -58 15 -58 -3z"/>
<path d="M4886 1911 c-7 -11 22 -23 35 -15 5 3 9 9 9 15 0 12 -37 12 -44 0z"/>
<path d="M3810 1805 c0 -10 7 -15 18 -13 21 4 19 22 -2 26 -10 2 -16 -3 -16
-13z"/>
<path d="M4250 1752 c0 -14 32 -20 55 -11 13 5 15 8 5 8 -8 1 -25 4 -37 7 -13
4 -23 2 -23 -4z"/>
<path d="M4935 1750 c3 -5 8 -10 11 -10 2 0 4 5 4 10 0 6 -5 10 -11 10 -5 0
-7 -4 -4 -10z"/>
<path d="M4455 1729 c-4 -6 -5 -13 -2 -16 7 -7 27 6 27 18 0 12 -17 12 -25 -2z"/>
<path d="M4870 1730 c0 -5 9 -10 21 -10 11 0 17 5 14 10 -3 6 -13 10 -21 10
-8 0 -14 -4 -14 -10z"/>
<path d="M4335 1710 c-3 -5 1 -10 10 -10 9 0 13 5 10 10 -3 6 -8 10 -10 10 -2
0 -7 -4 -10 -10z"/>
<path d="M4780 1700 c0 -5 5 -10 10 -10 6 0 10 5 10 10 0 6 -4 10 -10 10 -5 0
-10 -4 -10 -10z"/>
<path d="M6432 1688 c3 -7 15 -15 27 -16 16 -3 22 1 19 10 -3 7 -15 15 -27 16
-16 3 -22 -1 -19 -10z"/>
<path d="M6590 1649 c7 -11 14 -18 17 -15 8 8 -5 36 -17 36 -7 0 -7 -6 0 -21z"/>
<path d="M4702 1628 c-8 -8 -9 -15 -1 -25 18 -21 41 -16 37 9 -4 26 -19 33
-36 16z"/>
<path d="M6015 1358 c-9 -36 -3 -63 15 -63 21 0 24 29 6 62 l-14 28 -7 -27z"/>
<path d="M5950 1285 c0 -8 5 -15 10 -15 6 0 10 7 10 15 0 8 -4 15 -10 15 -5 0
-10 -7 -10 -15z"/>
<path d="M6026 1233 c-11 -11 -6 -23 9 -23 8 0 15 4 15 9 0 13 -16 22 -24 14z"/>
<path d="M4736 1145 c-31 -29 -33 -46 -7 -69 10 -9 21 -30 24 -46 5 -24 13
-30 43 -36 46 -9 68 14 58 61 -9 42 -20 52 -44 37 -27 -16 -59 -17 -42 0 14
14 16 78 3 78 -4 0 -20 -11 -35 -25z"/>
<path d="M5487 1133 c-4 -3 -7 -12 -7 -20 0 -17 26 -17 33 1 8 21 -11 35 -26
19z"/>
<path d="M5563 993 c-20 -8 -15 -23 7 -23 11 0 20 7 20 15 0 15 -6 17 -27 8z"/>
<path d="M4905 970 c3 -5 13 -10 21 -10 8 0 12 5 9 10 -3 6 -13 10 -21 10 -8
0 -12 -4 -9 -10z"/>
<path d="M4870 955 c-14 -17 -37 -20 -42 -5 -1 5 -15 -5 -30 -24 -23 -28 -25
-36 -14 -45 11 -9 22 -4 51 24 21 19 42 35 46 35 5 0 9 7 9 15 0 8 -2 15 -4
15 -2 0 -9 -7 -16 -15z"/>
<path d="M4720 949 c0 -8 9 -20 20 -27 11 -7 20 -8 20 -4 0 5 -9 17 -20 27
-15 14 -20 15 -20 4z"/>
<path d="M5661 933 c-13 -3 -26 -13 -28 -24 -3 -10 -10 -19 -17 -19 -19 -1
-69 -47 -58 -54 6 -4 15 1 21 11 8 16 11 15 30 -7 11 -14 20 -28 21 -32 0 -5
18 -8 40 -8 51 0 73 29 68 92 -3 38 -6 43 -28 44 -14 1 -36 0 -49 -3z"/>
<path d="M5890 895 c0 -28 -4 -35 -20 -35 -16 0 -20 -6 -19 -32 0 -37 17 -86
18 -56 1 9 13 29 27 43 15 15 23 32 20 41 -3 9 -6 29 -6 45 0 16 -4 29 -10 29
-5 0 -10 -16 -10 -35z"/>
<path d="M5780 800 c0 -11 7 -20 15 -20 8 0 15 6 15 14 0 8 -7 16 -15 20 -10
4 -15 -1 -15 -14z"/>
<path d="M5534 766 c-8 -21 12 -53 36 -59 31 -8 37 20 10 49 -27 27 -38 30
-46 10z"/>
<path d="M5742 748 c-7 -7 -12 -20 -12 -30 0 -10 -6 -18 -14 -18 -8 0 -17 -7
-20 -15 -3 -9 -19 -21 -36 -26 -16 -6 -30 -17 -30 -25 0 -8 -6 -14 -13 -14 -8
0 -19 -11 -25 -25 -38 -83 22 -123 82 -56 37 41 80 19 51 -25 -42 -64 -61
-174 -30 -174 16 0 45 43 45 68 0 24 16 38 55 48 55 13 76 44 29 44 -31 0 -58
25 -50 45 3 9 17 20 31 25 18 7 26 19 31 47 8 53 6 58 -21 55 -25 -3 -45 21
-45 57 0 25 -13 34 -28 19z"/>
<path d="M5825 720 c-8 -13 -1 -24 14 -19 6 3 7 10 2 18 -6 10 -10 10 -16 1z"/>
<path d="M5511 459 c-16 -6 -21 -13 -14 -20 6 -6 24 -3 54 10 42 19 43 20 14
20 -16 0 -41 -5 -54 -10z"/>
<path d="M5628 434 c-6 -29 2 -54 18 -54 11 0 13 6 8 23 -12 41 -21 51 -26 31z"/>
<path d="M4448 415 c-6 -30 -3 -43 8 -33 3 4 4 19 2 35 l-3 28 -7 -30z"/>
<path d="M5480 385 c0 -10 29 -24 34 -17 3 6 -3 12 -14 15 -11 3 -20 4 -20 2z"/>
<path d="M5542 283 c5 -26 38 -29 38 -4 0 15 -6 21 -21 21 -14 0 -19 -5 -17
-17z"/>
<path d="M5382 228 c-18 -18 -15 -28 8 -28 21 0 25 7 12 27 -6 10 -11 10 -20
1z"/>
<path d="M5470 195 c0 -8 5 -15 10 -15 6 0 10 7 10 15 0 8 -4 15 -10 15 -5 0
-10 -7 -10 -15z"/>
<path d="M5260 40 c0 -5 5 -10 10 -10 6 0 10 5 10 10 0 6 -4 10 -10 10 -5 0
-10 -4 -10 -10z"/>
</g>
</svg>
